# WaveFront *.obj file (generated by Autodesk ATF)

mtllib AND.mtl

g Body1

v 0.000000 -1.500000 -1.000000
v 0.000000 -1.500000 1.000000
v 0.000000 1.500000 1.000000
v 0.000000 1.500000 -1.000000
v 2.500000 -1.500000 1.000000
v 2.746892 -1.479542 1.000000
v 2.987049 -1.418726 1.000000
v 3.213921 -1.319211 1.000000
v 3.421319 -1.183711 1.000000
v 3.603586 -1.015922 1.000000
v 3.755750 -0.820422 1.000000
v 3.873660 -0.602543 1.000000
v 3.954100 -0.368228 1.000000
v 3.994877 -0.123869 1.000000
v 3.994877 0.123869 1.000000
v 3.954100 0.368228 1.000000
v 3.873660 0.602543 1.000000
v 3.755750 0.820422 1.000000
v 3.603586 1.015922 1.000000
v 3.421319 1.183711 1.000000
v 3.213921 1.319211 1.000000
v 2.987049 1.418726 1.000000
v 2.746892 1.479542 1.000000
v 2.500000 1.500000 1.000000
v 2.500000 -1.500000 -1.000000
v 2.500000 1.500000 -1.000000
v 2.746892 1.479542 -1.000000
v 2.987049 1.418726 -1.000000
v 3.213921 1.319211 -1.000000
v 3.421319 1.183711 -1.000000
v 3.603586 1.015922 -1.000000
v 3.755750 0.820422 -1.000000
v 3.873660 0.602543 -1.000000
v 3.954100 0.368228 -1.000000
v 3.994877 0.123869 -1.000000
v 3.994877 -0.123869 -1.000000
v 3.954100 -0.368228 -1.000000
v 3.873660 -0.602543 -1.000000
v 3.755750 -0.820422 -1.000000
v 3.603586 -1.015922 -1.000000
v 3.421319 -1.183711 -1.000000
v 3.213921 -1.319211 -1.000000
v 2.987049 -1.418726 -1.000000
v 2.746892 -1.479542 -1.000000
vt -1.000000 -3.000000 0.000000
vt 1.000000 -3.000000 0.000000
vt -1.000000 0.000000 0.000000
vt 1.000000 0.000000 0.000000
vt -0.750000 1.500000 0.000000
vt -0.750000 -1.500000 0.000000
vt 1.750000 1.500000 0.000000
vt 1.750000 -1.500000 0.000000
vt 3.244877 -0.123869 0.000000
vt 3.204100 -0.368228 0.000000
vt 3.123660 -0.602543 0.000000
vt 3.005750 -0.820422 0.000000
vt 2.853586 -1.015922 0.000000
vt 2.671319 -1.183711 0.000000
vt 2.463921 -1.319211 0.000000
vt 2.237049 -1.418726 0.000000
vt 1.996892 -1.479542 0.000000
vt 3.244877 0.123869 0.000000
vt 3.204100 0.368228 0.000000
vt 3.123660 0.602543 0.000000
vt 3.005750 0.820422 0.000000
vt 2.853586 1.015922 0.000000
vt 2.671319 1.183711 0.000000
vt 2.463921 1.319211 0.000000
vt 2.237049 1.418726 0.000000
vt 1.996892 1.479542 0.000000
vt 2.500000 -1.000000 0.000000
vt 5.000000 -1.000000 0.000000
vt 2.500000 1.000000 0.000000
vt 5.000000 1.000000 0.000000
vt 0.750000 1.500000 0.000000
vt -1.750000 1.500000 0.000000
vt 0.750000 -1.500000 0.000000
vt -1.750000 -1.500000 0.000000
vt -3.244877 -0.123869 0.000000
vt -3.204100 -0.368228 0.000000
vt -1.996892 1.479542 0.000000
vt -2.237049 1.418726 0.000000
vt -2.463921 1.319211 0.000000
vt -2.671319 1.183711 0.000000
vt -2.853586 1.015922 0.000000
vt -3.005750 0.820422 0.000000
vt -3.123660 0.602543 0.000000
vt -3.204100 0.368228 0.000000
vt -3.244877 0.123869 0.000000
vt -3.123660 -0.602543 0.000000
vt -3.005750 -0.820422 0.000000
vt -2.853586 -1.015922 0.000000
vt -2.671319 -1.183711 0.000000
vt -2.463921 -1.319211 0.000000
vt -2.237049 -1.418726 0.000000
vt -1.996892 -1.479542 0.000000
vt 2.500000 1.000000 0.000000
vt 0.000000 1.000000 0.000000
vt 2.500000 -1.000000 0.000000
vt 0.000000 -1.000000 0.000000
vt 1.000000 -4.712389 0.000000
vt -1.000000 -4.712389 0.000000
vt 1.000000 -4.960409 0.000000
vt -1.000000 -4.960409 0.000000
vt 1.000000 -5.208430 0.000000
vt -1.000000 -5.208430 0.000000
vt 1.000000 -5.456450 0.000000
vt -1.000000 -5.456450 0.000000
vt 1.000000 -5.704471 0.000000
vt -1.000000 -5.704471 0.000000
vt 1.000000 -5.952491 0.000000
vt -1.000000 -5.952491 0.000000
vt 1.000000 -6.200512 0.000000
vt -1.000000 -6.200512 0.000000
vt 1.000000 -6.448532 0.000000
vt -1.000000 -6.448532 0.000000
vt 1.000000 -6.696553 0.000000
vt -1.000000 -6.696553 0.000000
vt 1.000000 -6.944573 0.000000
vt -1.000000 -6.944573 0.000000
vt 1.000000 -7.192594 0.000000
vt -1.000000 -7.192594 0.000000
vt 1.000000 -7.440614 0.000000
vt -1.000000 -7.440614 0.000000
vt 1.000000 -7.688635 0.000000
vt -1.000000 -7.688635 0.000000
vt 1.000000 -7.936655 0.000000
vt -1.000000 -7.936655 0.000000
vt 1.000000 -8.184676 0.000000
vt -1.000000 -8.184676 0.000000
vt 1.000000 -8.432696 0.000000
vt -1.000000 -8.432696 0.000000
vt 1.000000 -8.680717 0.000000
vt -1.000000 -8.680717 0.000000
vt 1.000000 -8.928737 0.000000
vt -1.000000 -8.928737 0.000000
vt 1.000000 -9.176757 0.000000
vt -1.000000 -9.176757 0.000000
vt 1.000000 -9.424778 0.000000
vt -1.000000 -9.424778 0.000000
vn -1.000000 -0.000000 -0.000000
vn -1.000000 -0.000000 -0.000000
vn -1.000000 -0.000000 -0.000000
vn -1.000000 -0.000000 -0.000000
vn 0.000000 0.000000 1.000000
vn 0.000000 0.000000 1.000000
vn 0.000000 0.000000 1.000000
vn 0.000000 0.000000 1.000000
vn 0.000000 0.000000 1.000000
vn 0.000000 0.000000 1.000000
vn 0.000000 0.000000 1.000000
vn 0.000000 0.000000 1.000000
vn 0.000000 0.000000 1.000000
vn 0.000000 0.000000 1.000000
vn 0.000000 0.000000 1.000000
vn 0.000000 0.000000 1.000000
vn 0.000000 0.000000 1.000000
vn 0.000000 0.000000 1.000000
vn 0.000000 0.000000 1.000000
vn 0.000000 0.000000 1.000000
vn 0.000000 0.000000 1.000000
vn 0.000000 0.000000 1.000000
vn 0.000000 0.000000 1.000000
vn 0.000000 0.000000 1.000000
vn 0.000000 0.000000 1.000000
vn 0.000000 0.000000 1.000000
vn 0.000000 -1.000000 0.000000
vn 0.000000 -1.000000 0.000000
vn 0.000000 -1.000000 0.000000
vn 0.000000 -1.000000 0.000000
vn -0.000000 -0.000000 -1.000000
vn -0.000000 -0.000000 -1.000000
vn -0.000000 -0.000000 -1.000000
vn -0.000000 -0.000000 -1.000000
vn -0.000000 -0.000000 -1.000000
vn -0.000000 -0.000000 -1.000000
vn -0.000000 -0.000000 -1.000000
vn -0.000000 -0.000000 -1.000000
vn -0.000000 -0.000000 -1.000000
vn -0.000000 -0.000000 -1.000000
vn -0.000000 -0.000000 -1.000000
vn -0.000000 -0.000000 -1.000000
vn -0.000000 -0.000000 -1.000000
vn -0.000000 -0.000000 -1.000000
vn -0.000000 -0.000000 -1.000000
vn -0.000000 -0.000000 -1.000000
vn -0.000000 -0.000000 -1.000000
vn -0.000000 -0.000000 -1.000000
vn -0.000000 -0.000000 -1.000000
vn -0.000000 -0.000000 -1.000000
vn -0.000000 -0.000000 -1.000000
vn -0.000000 -0.000000 -1.000000
vn 0.000000 1.000000 -0.000000
vn 0.000000 1.000000 -0.000000
vn 0.000000 1.000000 -0.000000
vn 0.000000 1.000000 -0.000000
vn 0.164595 0.986361 -0.000000
vn 0.164595 0.986361 -0.000000
vn 0.324699 0.945817 -0.000000
vn 0.324699 0.945817 -0.000000
vn 0.475947 0.879474 -0.000000
vn 0.475947 0.879474 -0.000000
vn 0.614213 0.789141 -0.000000
vn 0.614213 0.789141 -0.000000
vn 0.735724 0.677282 -0.000000
vn 0.735724 0.677282 -0.000000
vn 0.837166 0.546948 -0.000000
vn 0.837166 0.546948 -0.000000
vn 0.915773 0.401695 -0.000000
vn 0.915773 0.401695 -0.000000
vn 0.969400 0.245485 -0.000000
vn 0.969400 0.245485 -0.000000
vn 0.996584 0.082579 -0.000000
vn 0.996584 0.082579 -0.000000
vn 0.996584 -0.082579 -0.000000
vn 0.996584 -0.082579 -0.000000
vn 0.969400 -0.245485 -0.000000
vn 0.969400 -0.245485 -0.000000
vn 0.915773 -0.401695 -0.000000
vn 0.915773 -0.401695 -0.000000
vn 0.837166 -0.546948 -0.000000
vn 0.837166 -0.546948 -0.000000
vn 0.735724 -0.677282 -0.000000
vn 0.735724 -0.677282 -0.000000
vn 0.614213 -0.789141 -0.000000
vn 0.614213 -0.789141 -0.000000
vn 0.475947 -0.879474 -0.000000
vn 0.475947 -0.879474 -0.000000
vn 0.324699 -0.945817 -0.000000
vn 0.324699 -0.945817 -0.000000
vn 0.164595 -0.986361 -0.000000
vn 0.164595 -0.986361 -0.000000
usemtl Brass_-_Matte
f 1/1/1 2/2/2 4/3/3
f 4/3/3 2/2/2 3/4/4
f 3/5/5 2/6/6 24/7/7
f 24/7/7 2/6/6 5/8/8
f 24/7/7 5/8/8 14/9/9
f 14/9/9 5/8/8 13/10/10
f 13/10/10 5/8/8 12/11/11
f 12/11/11 5/8/8 11/12/12
f 11/12/12 5/8/8 10/13/13
f 10/13/13 5/8/8 9/14/14
f 9/14/14 5/8/8 8/15/15
f 8/15/15 5/8/8 7/16/16
f 7/16/16 5/8/8 6/17/17
f 14/9/9 15/18/18 24/7/7
f 24/7/7 15/18/18 16/19/19
f 24/7/7 16/19/19 17/20/20
f 17/20/20 18/21/21 24/7/7
f 24/7/7 18/21/21 19/22/22
f 24/7/7 19/22/22 20/23/23
f 20/23/23 21/24/24 24/7/7
f 24/7/7 21/24/24 22/25/25
f 24/7/7 22/25/25 23/26/26
f 1/27/27 25/28/28 2/29/29
f 2/29/29 25/28/28 5/30/30
f 4/31/31 26/32/32 1/33/33
f 1/33/33 26/32/32 25/34/34
f 25/34/34 26/32/32 36/35/35
f 25/34/34 36/35/35 37/36/36
f 27/37/37 28/38/38 26/32/32
f 26/32/32 28/38/38 29/39/39
f 26/32/32 29/39/39 30/40/40
f 30/40/40 31/41/41 26/32/32
f 26/32/32 31/41/41 32/42/42
f 26/32/32 32/42/42 33/43/43
f 33/43/43 34/44/44 26/32/32
f 26/32/32 34/44/44 35/45/45
f 26/32/32 35/45/45 36/35/35
f 37/36/36 38/46/46 25/34/34
f 25/34/34 38/46/46 39/47/47
f 25/34/34 39/47/47 40/48/48
f 40/48/48 41/49/49 25/34/34
f 25/34/34 41/49/49 42/50/50
f 25/34/34 42/50/50 43/51/51
f 43/51/51 44/52/52 25/34/34
f 3/53/53 24/54/54 4/55/55
f 4/55/55 24/54/54 26/56/56
f 26/57/56 24/58/54 27/59/57
f 27/59/57 24/58/54 23/60/58
f 27/59/57 23/60/58 28/61/59
f 28/61/59 23/60/58 22/62/60
f 28/61/59 22/62/60 29/63/61
f 29/63/61 22/62/60 21/64/62
f 29/63/61 21/64/62 30/65/63
f 30/65/63 21/64/62 20/66/64
f 30/65/63 20/66/64 31/67/65
f 31/67/65 20/66/64 19/68/66
f 31/67/65 19/68/66 32/69/67
f 32/69/67 19/68/66 18/70/68
f 32/69/67 18/70/68 33/71/69
f 33/71/69 18/70/68 17/72/70
f 33/71/69 17/72/70 34/73/71
f 34/73/71 17/72/70 16/74/72
f 34/73/71 16/74/72 35/75/73
f 35/75/73 16/74/72 15/76/74
f 35/75/73 15/76/74 36/77/75
f 36/77/75 15/76/74 14/78/76
f 36/77/75 14/78/76 37/79/77
f 37/79/77 14/78/76 13/80/78
f 37/79/77 13/80/78 38/81/79
f 38/81/79 13/80/78 12/82/80
f 38/81/79 12/82/80 39/83/81
f 39/83/81 12/82/80 11/84/82
f 39/83/81 11/84/82 40/85/83
f 40/85/83 11/84/82 10/86/84
f 40/85/83 10/86/84 41/87/85
f 41/87/85 10/86/84 9/88/86
f 41/87/85 9/88/86 42/89/87
f 42/89/87 9/88/86 8/90/88
f 42/89/87 8/90/88 43/91/89
f 43/91/89 8/90/88 7/92/90
f 43/91/89 7/92/90 44/93/91
f 44/93/91 7/92/90 6/94/92
f 44/93/91 6/94/92 25/95/28
f 25/95/28 6/94/92 5/96/30
# 44 vertices
# 96 texture params
# 92 normals
# 84 facets

# 1 groups
