# WaveFront *.obj file (generated by Autodesk ATF)

mtllib MONITOR_frame.mtl

g MONITOR_frame

v 0.150000 -0.050000 1.050000
v 0.050000 -0.050000 1.050000
v 0.050000 -0.050000 2.750000
v 0.379289 -0.050000 2.750000
v 0.629289 -0.050000 3.000000
v 0.379289 -0.050000 3.250000
v -0.379289 -0.050000 3.250000
v -0.629289 -0.050000 3.000000
v -0.379289 -0.050000 2.750000
v -0.050000 -0.050000 2.750000
v -0.050000 -0.050000 1.050000
v -0.150000 -0.050000 1.050000
v -0.150000 -0.050000 2.650000
v -0.420711 -0.050000 2.650000
v -0.770711 -0.050000 3.000000
v -0.420711 -0.050000 3.350000
v 0.420711 -0.050000 3.350000
v 0.770711 -0.050000 3.000000
v 0.420711 -0.050000 2.650000
v 0.150000 -0.050000 2.650000
v -0.379289 -0.150000 2.750000
v -0.050000 -0.150000 2.750000
v -0.150000 -0.150000 2.650000
v -0.420711 -0.150000 2.650000
v -0.629289 -0.150000 3.000000
v -0.770711 -0.150000 3.000000
v -0.379289 -0.150000 3.250000
v -0.420711 -0.150000 3.350000
v 0.379289 -0.150000 3.250000
v 0.420711 -0.150000 3.350000
v 0.629289 -0.150000 3.000000
v 0.770711 -0.150000 3.000000
v 0.379289 -0.150000 2.750000
v 0.420711 -0.150000 2.650000
v 0.150000 -0.150000 2.650000
v 0.050000 -0.150000 2.750000
v 0.050000 -0.150000 1.050000
v -0.050000 -0.150000 1.050000
v 0.150000 -0.150000 0.950000
v 0.150000 0.150000 0.950000
v 0.150000 0.150000 2.650000
v 0.150000 0.050000 2.650000
v 0.150000 0.050000 1.050000
v -0.050000 0.050000 1.050000
v -0.150000 0.050000 1.050000
v 0.050000 0.050000 1.050000
v 0.050000 -0.050000 0.950000
v 0.050000 0.050000 0.950000
v -0.050000 0.050000 0.950000
v -0.050000 -0.050000 0.950000
v -0.150000 -0.150000 0.950000
v 0.420711 0.050000 2.650000
v 0.770711 0.050000 3.000000
v 0.420711 0.050000 3.350000
v -0.420711 0.050000 3.350000
v -0.770711 0.050000 3.000000
v -0.420711 0.050000 2.650000
v -0.150000 0.050000 2.650000
v -0.050000 0.050000 2.750000
v -0.379289 0.050000 2.750000
v -0.629289 0.050000 3.000000
v -0.379289 0.050000 3.250000
v 0.379289 0.050000 3.250000
v 0.629289 0.050000 3.000000
v 0.379289 0.050000 2.750000
v 0.050000 0.050000 2.750000
v 0.050000 0.150000 1.050000
v 0.050000 0.150000 2.750000
v 0.379289 0.150000 2.750000
v 0.629289 0.150000 3.000000
v 0.379289 0.150000 3.250000
v -0.379289 0.150000 3.250000
v -0.629289 0.150000 3.000000
v -0.379289 0.150000 2.750000
v -0.050000 0.150000 2.750000
v -0.050000 0.150000 1.050000
v -0.150000 0.150000 0.950000
v -0.150000 0.150000 2.650000
v -0.420711 0.150000 2.650000
v -0.770711 0.150000 3.000000
v -0.420711 0.150000 3.350000
v 0.420711 0.150000 3.350000
v 0.770711 0.150000 3.000000
v 0.420711 0.150000 2.650000
vt 0.300000 0.800000 0.000000
vt 0.200000 0.800000 0.000000
vt 0.300000 -0.800000 0.000000
vt 0.200000 -0.900000 0.000000
vt 0.529289 -0.900000 0.000000
vt 0.570711 -0.800000 0.000000
vt 0.779289 -1.150000 0.000000
vt 0.920711 -1.150000 0.000000
vt 0.570711 -1.500000 0.000000
vt 0.529289 -1.400000 0.000000
vt -0.229289 -1.400000 0.000000
vt -0.270711 -1.500000 0.000000
vt -0.479289 -1.150000 0.000000
vt -0.620711 -1.150000 0.000000
vt -0.270711 -0.800000 0.000000
vt -0.229289 -0.900000 0.000000
vt 0.000000 -0.800000 0.000000
vt 0.100000 -0.900000 0.000000
vt 0.100000 0.800000 0.000000
vt 0.000000 0.800000 0.000000
vt 0.000000 0.020711 0.000000
vt 0.100000 0.020711 0.000000
vt 0.000000 0.350000 0.000000
vt 0.100000 0.350000 0.000000
vt 0.100000 0.250000 0.000000
vt 0.000000 0.250000 0.000000
vt 0.100000 -0.020711 0.000000
vt 0.000000 -0.020711 0.000000
vt 0.100000 0.403553 0.000000
vt 0.000000 0.403553 0.000000
vt 0.100000 0.050000 0.000000
vt 0.000000 0.050000 0.000000
vt 0.100000 0.444975 0.000000
vt 0.000000 0.444975 0.000000
vt 0.100000 -0.050000 0.000000
vt 0.000000 -0.050000 0.000000
vt 0.100000 0.374264 0.000000
vt 0.000000 0.374264 0.000000
vt 0.100000 0.020711 0.000000
vt 0.000000 0.020711 0.000000
vt 0.100000 0.474264 0.000000
vt 0.000000 0.474264 0.000000
vt 0.100000 -0.020711 0.000000
vt 0.000000 -0.020711 0.000000
vt 0.100000 0.779289 0.000000
vt 0.000000 0.779289 0.000000
vt 0.100000 0.020711 0.000000
vt 0.000000 0.020711 0.000000
vt 0.100000 0.820711 0.000000
vt 0.000000 0.820711 0.000000
vt 0.100000 -0.020711 0.000000
vt 0.000000 -0.020711 0.000000
vt 0.100000 0.403553 0.000000
vt 0.000000 0.403553 0.000000
vt 0.100000 0.050000 0.000000
vt 0.000000 0.050000 0.000000
vt 0.100000 0.444975 0.000000
vt 0.000000 0.444975 0.000000
vt 0.100000 -0.050000 0.000000
vt 0.000000 -0.050000 0.000000
vt 0.100000 0.374264 0.000000
vt 0.000000 0.374264 0.000000
vt 0.100000 0.020711 0.000000
vt 0.000000 0.020711 0.000000
vt 0.100000 0.474264 0.000000
vt 0.000000 0.474264 0.000000
vt 0.100000 -0.020711 0.000000
vt 0.000000 -0.020711 0.000000
vt 0.000000 0.050000 0.000000
vt 0.100000 0.050000 0.000000
vt 0.000000 0.320711 0.000000
vt 0.100000 0.320711 0.000000
vt 0.100000 0.279289 0.000000
vt 0.000000 0.279289 0.000000
vt 0.100000 -0.050000 0.000000
vt -0.000000 -0.050000 0.000000
vt 0.100000 0.050000 0.000000
vt 0.100000 1.750000 0.000000
vt 0.000000 0.050000 0.000000
vt 0.000000 1.750000 0.000000
vt 0.100000 0.800000 0.000000
vt 0.000000 0.800000 0.000000
vt 0.100000 -0.900000 0.000000
vt -0.000000 -0.900000 0.000000
vt -0.300000 1.650000 0.000000
vt -0.300000 -0.050000 0.000000
vt -0.200000 0.050000 0.000000
vt -0.000000 -0.050000 0.000000
vt -0.100000 0.050000 0.000000
vt -0.000000 1.650000 0.000000
vt -0.100000 1.650000 0.000000
vt -0.200000 1.650000 0.000000
vt 0.100000 0.050000 0.000000
vt 0.200000 0.050000 0.000000
vt 0.100000 0.150000 0.000000
vt 0.200000 0.150000 0.000000
vt 0.100000 -0.050000 0.000000
vt 0.100000 -0.150000 0.000000
vt 0.200000 -0.050000 0.000000
vt 0.200000 -0.150000 0.000000
vt 0.000000 -0.050000 0.000000
vt 0.100000 -0.050000 0.000000
vt 0.000000 0.050000 0.000000
vt 0.100000 0.050000 0.000000
vt 0.000000 0.150000 0.000000
vt 0.000000 0.050000 0.000000
vt 0.100000 0.150000 0.000000
vt 0.100000 0.050000 0.000000
vt 0.100000 0.150000 0.000000
vt 0.000000 0.150000 0.000000
vt 0.100000 0.050000 0.000000
vt 0.000000 0.050000 0.000000
vt 0.100000 -0.050000 0.000000
vt 0.000000 0.050000 0.000000
vt 0.000000 -0.050000 0.000000
vt 0.100000 0.050000 0.000000
vt 0.000000 -0.150000 0.000000
vt 0.100000 -0.050000 0.000000
vt 1.700000 -0.150000 0.000000
vt 1.800000 -0.050000 0.000000
vt 1.800000 -0.379289 0.000000
vt 1.700000 -0.420711 0.000000
vt 2.050000 -0.629289 0.000000
vt 2.050000 -0.770711 0.000000
vt 2.400000 -0.420711 0.000000
vt 1.800000 0.050000 0.000000
vt 1.700000 0.150000 0.000000
vt 0.000000 0.150000 0.000000
vt 1.800000 0.379289 0.000000
vt 1.700000 0.420711 0.000000
vt 2.050000 0.629289 0.000000
vt 2.050000 0.770711 0.000000
vt 2.400000 0.420711 0.000000
vt 2.300000 0.379289 0.000000
vt 2.300000 -0.379289 0.000000
vt -0.300000 0.800000 0.000000
vt -0.300000 -0.800000 0.000000
vt -0.200000 0.800000 0.000000
vt -0.200000 -0.900000 0.000000
vt -0.529289 -0.900000 0.000000
vt -0.570711 -0.800000 0.000000
vt -0.779289 -1.150000 0.000000
vt -0.920711 -1.150000 0.000000
vt -0.570711 -1.500000 0.000000
vt -0.529289 -1.400000 0.000000
vt 0.270711 -1.500000 0.000000
vt 0.229289 -1.400000 0.000000
vt 0.479289 -1.150000 0.000000
vt 0.620711 -1.150000 0.000000
vt 0.270711 -0.800000 0.000000
vt 0.229289 -0.900000 0.000000
vt -0.000000 -0.800000 0.000000
vt -0.100000 -0.900000 0.000000
vt -0.100000 0.800000 0.000000
vt -0.000000 0.800000 0.000000
vt 0.100000 -0.900000 0.000000
vt 0.200000 -0.800000 0.000000
vt 0.100000 0.800000 0.000000
vt 0.200000 0.900000 0.000000
vt -0.100000 0.900000 0.000000
vt 0.429289 -0.900000 0.000000
vt 0.470711 -0.800000 0.000000
vt 0.679289 -1.150000 0.000000
vt 0.820711 -1.150000 0.000000
vt 0.470711 -1.500000 0.000000
vt 0.429289 -1.400000 0.000000
vt -0.329289 -1.400000 0.000000
vt -0.370711 -1.500000 0.000000
vt -0.579289 -1.150000 0.000000
vt -0.720711 -1.150000 0.000000
vt -0.370711 -0.800000 0.000000
vt -0.329289 -0.900000 0.000000
vt -0.100000 -0.800000 0.000000
vt 0.000000 -0.900000 0.000000
vt -0.000000 0.800000 0.000000
vt -0.100000 0.020711 0.000000
vt -0.000000 0.020711 0.000000
vt -0.100000 0.350000 0.000000
vt -0.000000 0.350000 0.000000
vt -0.000000 0.250000 0.000000
vt -0.100000 0.250000 0.000000
vt -0.000000 -0.020711 0.000000
vt -0.100000 -0.020711 0.000000
vt -0.000000 0.403553 0.000000
vt -0.100000 0.403553 0.000000
vt -0.000000 0.050000 0.000000
vt -0.100000 0.050000 0.000000
vt -0.100000 -0.050000 0.000000
vt -0.000000 -0.050000 0.000000
vt -0.100000 0.444975 0.000000
vt -0.000000 0.444975 0.000000
vt -0.000000 0.374264 0.000000
vt -0.100000 0.374264 0.000000
vt -0.000000 0.020711 0.000000
vt -0.100000 0.020711 0.000000
vt -0.100000 -0.020711 0.000000
vt -0.000000 -0.020711 0.000000
vt -0.100000 0.474264 0.000000
vt 0.000000 0.474264 0.000000
vt -0.000000 0.779289 0.000000
vt -0.100000 0.779289 0.000000
vt -0.000000 0.020711 0.000000
vt -0.100000 0.020711 0.000000
vt -0.100000 -0.020711 0.000000
vt -0.000000 -0.020711 0.000000
vt -0.100000 0.820711 0.000000
vt -0.000000 0.820711 0.000000
vt -0.000000 0.403553 0.000000
vt -0.100000 0.403553 0.000000
vt -0.000000 0.050000 0.000000
vt -0.100000 0.050000 0.000000
vt -0.100000 -0.050000 0.000000
vt -0.000000 -0.050000 0.000000
vt -0.100000 0.444975 0.000000
vt -0.000000 0.444975 0.000000
vt -0.000000 0.374264 0.000000
vt -0.100000 0.374264 0.000000
vt -0.000000 0.020711 0.000000
vt -0.100000 0.020711 0.000000
vt -0.100000 -0.020711 0.000000
vt 0.000000 -0.020711 0.000000
vt -0.100000 0.474264 0.000000
vt -0.000000 0.474264 0.000000
vt -0.100000 0.050000 0.000000
vt -0.000000 0.050000 0.000000
vt -0.100000 0.320711 0.000000
vt -0.000000 0.320711 0.000000
vt -0.000000 0.279289 0.000000
vt -0.100000 0.279289 0.000000
vt -0.000000 -0.050000 0.000000
vt -0.100000 -0.050000 0.000000
vt -0.100000 0.050000 0.000000
vt -0.000000 0.050000 0.000000
vt -0.100000 1.750000 0.000000
vt -0.000000 1.750000 0.000000
vt -0.000000 0.150000 0.000000
vt -0.100000 0.150000 0.000000
vt -0.000000 0.050000 0.000000
vt -0.100000 0.050000 0.000000
vt -0.000000 -0.050000 0.000000
vt -0.200000 0.050000 0.000000
vt -0.300000 -0.050000 0.000000
vt -0.200000 0.150000 0.000000
vt -0.300000 0.250000 0.000000
vt -0.000000 0.250000 0.000000
vt -0.100000 0.150000 0.000000
vt -0.100000 0.050000 0.000000
vt -0.100000 0.900000 0.000000
vt -0.200000 0.900000 0.000000
vt -0.100000 0.800000 0.000000
vt -0.200000 0.800000 0.000000
vt -0.100000 0.800000 0.000000
vt 0.000000 0.900000 0.000000
vt -0.200000 0.800000 0.000000
vt -0.300000 0.900000 0.000000
vt -0.300000 -0.800000 0.000000
vt -0.100000 -0.800000 0.000000
vt -0.000000 -0.800000 0.000000
vt -0.200000 -0.800000 0.000000
vt -0.000000 0.800000 0.000000
vt -0.100000 0.800000 0.000000
vt -0.000000 -0.900000 0.000000
vt -0.100000 -0.900000 0.000000
vn 0.000000 1.000000 0.000000
vn 0.000000 1.000000 0.000000
vn 0.000000 1.000000 0.000000
vn 0.000000 1.000000 0.000000
vn 0.000000 1.000000 0.000000
vn 0.000000 1.000000 0.000000
vn 0.000000 1.000000 0.000000
vn 0.000000 1.000000 0.000000
vn 0.000000 1.000000 0.000000
vn 0.000000 1.000000 0.000000
vn 0.000000 1.000000 0.000000
vn 0.000000 1.000000 0.000000
vn 0.000000 1.000000 0.000000
vn 0.000000 1.000000 0.000000
vn 0.000000 1.000000 0.000000
vn 0.000000 1.000000 0.000000
vn 0.000000 1.000000 0.000000
vn 0.000000 1.000000 0.000000
vn 0.000000 1.000000 0.000000
vn 0.000000 1.000000 0.000000
vn 0.000000 0.000000 1.000000
vn 0.000000 0.000000 1.000000
vn 0.000000 0.000000 1.000000
vn 0.000000 0.000000 1.000000
vn 0.000000 -0.000000 -1.000000
vn 0.000000 -0.000000 -1.000000
vn 0.000000 -0.000000 -1.000000
vn 0.000000 -0.000000 -1.000000
vn 0.707107 0.000000 0.707107
vn 0.707107 0.000000 0.707107
vn 0.707107 0.000000 0.707107
vn 0.707107 0.000000 0.707107
vn -0.707107 -0.000000 -0.707107
vn -0.707107 -0.000000 -0.707107
vn -0.707107 -0.000000 -0.707107
vn -0.707107 -0.000000 -0.707107
vn 0.707107 0.000000 -0.707107
vn 0.707107 0.000000 -0.707107
vn 0.707107 0.000000 -0.707107
vn 0.707107 0.000000 -0.707107
vn -0.707107 -0.000000 0.707107
vn -0.707107 -0.000000 0.707107
vn -0.707107 -0.000000 0.707107
vn -0.707107 -0.000000 0.707107
vn 0.000000 0.000000 -1.000000
vn 0.000000 0.000000 -1.000000
vn 0.000000 0.000000 -1.000000
vn 0.000000 0.000000 -1.000000
vn -0.000000 -0.000000 1.000000
vn -0.000000 -0.000000 1.000000
vn -0.000000 -0.000000 1.000000
vn -0.000000 -0.000000 1.000000
vn -0.707107 0.000000 -0.707107
vn -0.707107 0.000000 -0.707107
vn -0.707107 0.000000 -0.707107
vn -0.707107 0.000000 -0.707107
vn 0.707107 -0.000000 0.707107
vn 0.707107 -0.000000 0.707107
vn 0.707107 -0.000000 0.707107
vn 0.707107 -0.000000 0.707107
vn -0.707107 0.000000 0.707107
vn -0.707107 0.000000 0.707107
vn -0.707107 0.000000 0.707107
vn -0.707107 0.000000 0.707107
vn 0.707107 -0.000000 -0.707107
vn 0.707107 -0.000000 -0.707107
vn 0.707107 -0.000000 -0.707107
vn 0.707107 -0.000000 -0.707107
vn 0.000000 -0.000000 -1.000000
vn 0.000000 -0.000000 -1.000000
vn 0.000000 -0.000000 -1.000000
vn 0.000000 -0.000000 -1.000000
vn 0.000000 0.000000 1.000000
vn 0.000000 0.000000 1.000000
vn 0.000000 0.000000 1.000000
vn 0.000000 0.000000 1.000000
vn -1.000000 0.000000 0.000000
vn -1.000000 0.000000 0.000000
vn -1.000000 0.000000 0.000000
vn -1.000000 0.000000 0.000000
vn 1.000000 -0.000000 0.000000
vn 1.000000 -0.000000 0.000000
vn 1.000000 -0.000000 0.000000
vn 1.000000 -0.000000 0.000000
vn 1.000000 0.000000 0.000000
vn 1.000000 0.000000 0.000000
vn 1.000000 0.000000 0.000000
vn 1.000000 0.000000 0.000000
vn 1.000000 0.000000 0.000000
vn 1.000000 0.000000 0.000000
vn 1.000000 0.000000 0.000000
vn 1.000000 0.000000 0.000000
vn 0.000000 0.000000 1.000000
vn 0.000000 0.000000 1.000000
vn 0.000000 0.000000 1.000000
vn 0.000000 0.000000 1.000000
vn 0.000000 0.000000 1.000000
vn 0.000000 0.000000 1.000000
vn 0.000000 0.000000 1.000000
vn 0.000000 0.000000 1.000000
vn 0.000000 0.000000 1.000000
vn 0.000000 0.000000 1.000000
vn -1.000000 0.000000 0.000000
vn -1.000000 0.000000 0.000000
vn -1.000000 0.000000 0.000000
vn 1.000000 0.000000 0.000000
vn 1.000000 0.000000 0.000000
vn 1.000000 0.000000 0.000000
vn 0.000000 1.000000 -0.000000
vn 0.000000 1.000000 -0.000000
vn -0.000000 -1.000000 -0.000000
vn -0.000000 -1.000000 -0.000000
vn -0.000000 -1.000000 -0.000000
vn -0.000000 -1.000000 -0.000000
vn -0.000000 -1.000000 -0.000000
vn -0.000000 -1.000000 -0.000000
vn -0.000000 -1.000000 -0.000000
vn -0.000000 -1.000000 -0.000000
vn -0.000000 -1.000000 -0.000000
vn -0.000000 -1.000000 -0.000000
vn -0.000000 -1.000000 -0.000000
vn -0.000000 -1.000000 -0.000000
vn -0.000000 -1.000000 -0.000000
vn -0.000000 -1.000000 -0.000000
vn -0.000000 -1.000000 -0.000000
vn -0.000000 -1.000000 -0.000000
vn -0.000000 -1.000000 -0.000000
vn -0.000000 -1.000000 -0.000000
vn -0.000000 -1.000000 -0.000000
vn -0.000000 -1.000000 -0.000000
vn 0.000000 -1.000000 0.000000
vn 0.000000 -1.000000 0.000000
vn 0.000000 -1.000000 0.000000
vn 0.000000 -1.000000 0.000000
vn 0.000000 -1.000000 0.000000
vn 0.000000 -1.000000 0.000000
vn 0.000000 -1.000000 0.000000
vn 0.000000 -1.000000 0.000000
vn 0.000000 -1.000000 0.000000
vn 0.000000 -1.000000 0.000000
vn 0.000000 -1.000000 0.000000
vn 0.000000 -1.000000 0.000000
vn 0.000000 -1.000000 0.000000
vn 0.000000 -1.000000 0.000000
vn 0.000000 -1.000000 0.000000
vn 0.000000 -1.000000 0.000000
vn 0.000000 -1.000000 0.000000
vn 0.000000 -1.000000 0.000000
vn 0.000000 -1.000000 0.000000
vn 0.000000 -1.000000 0.000000
vn 0.000000 1.000000 0.000000
vn 0.000000 1.000000 0.000000
vn 0.000000 1.000000 0.000000
vn 0.000000 1.000000 0.000000
vn 0.000000 1.000000 0.000000
vn 0.000000 1.000000 0.000000
vn 0.000000 1.000000 0.000000
vn 0.000000 1.000000 0.000000
vn 0.000000 1.000000 0.000000
vn 0.000000 1.000000 0.000000
vn 0.000000 1.000000 0.000000
vn 0.000000 1.000000 0.000000
vn 0.000000 1.000000 0.000000
vn 0.000000 1.000000 0.000000
vn 0.000000 1.000000 0.000000
vn 0.000000 1.000000 0.000000
vn 0.000000 1.000000 0.000000
vn 0.000000 1.000000 0.000000
vn 0.000000 1.000000 0.000000
vn 0.000000 1.000000 0.000000
vn 0.000000 0.000000 1.000000
vn 0.000000 0.000000 1.000000
vn 0.000000 0.000000 1.000000
vn 0.000000 0.000000 1.000000
vn 0.000000 0.000000 -1.000000
vn 0.000000 0.000000 -1.000000
vn 0.000000 0.000000 -1.000000
vn 0.000000 0.000000 -1.000000
vn 0.707107 0.000000 0.707107
vn 0.707107 0.000000 0.707107
vn 0.707107 0.000000 0.707107
vn 0.707107 0.000000 0.707107
vn -0.707107 0.000000 -0.707107
vn -0.707107 0.000000 -0.707107
vn -0.707107 0.000000 -0.707107
vn -0.707107 0.000000 -0.707107
vn 0.707107 0.000000 -0.707107
vn 0.707107 0.000000 -0.707107
vn 0.707107 0.000000 -0.707107
vn 0.707107 0.000000 -0.707107
vn -0.707107 0.000000 0.707107
vn -0.707107 0.000000 0.707107
vn -0.707107 0.000000 0.707107
vn -0.707107 0.000000 0.707107
vn 0.000000 0.000000 -1.000000
vn 0.000000 0.000000 -1.000000
vn 0.000000 0.000000 -1.000000
vn 0.000000 0.000000 -1.000000
vn 0.000000 0.000000 1.000000
vn 0.000000 0.000000 1.000000
vn 0.000000 0.000000 1.000000
vn 0.000000 0.000000 1.000000
vn -0.707107 -0.000000 -0.707107
vn -0.707107 -0.000000 -0.707107
vn -0.707107 -0.000000 -0.707107
vn -0.707107 -0.000000 -0.707107
vn 0.707107 0.000000 0.707107
vn 0.707107 0.000000 0.707107
vn 0.707107 0.000000 0.707107
vn 0.707107 0.000000 0.707107
vn -0.707107 0.000000 0.707107
vn -0.707107 0.000000 0.707107
vn -0.707107 0.000000 0.707107
vn -0.707107 0.000000 0.707107
vn 0.707107 0.000000 -0.707107
vn 0.707107 0.000000 -0.707107
vn 0.707107 0.000000 -0.707107
vn 0.707107 0.000000 -0.707107
vn 0.000000 0.000000 -1.000000
vn 0.000000 0.000000 -1.000000
vn 0.000000 0.000000 -1.000000
vn 0.000000 0.000000 -1.000000
vn 0.000000 0.000000 1.000000
vn 0.000000 0.000000 1.000000
vn 0.000000 0.000000 1.000000
vn 0.000000 0.000000 1.000000
vn -1.000000 0.000000 0.000000
vn -1.000000 0.000000 0.000000
vn -1.000000 0.000000 0.000000
vn 0.000000 0.000000 1.000000
vn 0.000000 0.000000 1.000000
vn 0.000000 0.000000 -1.000000
vn 0.000000 0.000000 -1.000000
vn 0.000000 0.000000 -1.000000
vn 0.000000 0.000000 -1.000000
vn 0.000000 0.000000 -1.000000
vn 0.000000 0.000000 -1.000000
vn 0.000000 0.000000 -1.000000
vn 0.000000 0.000000 -1.000000
vn 0.000000 -1.000000 0.000000
vn 0.000000 -1.000000 0.000000
vn -1.000000 0.000000 -0.000000
vn -1.000000 0.000000 -0.000000
vn -1.000000 0.000000 -0.000000
vn -1.000000 0.000000 -0.000000
vn -1.000000 0.000000 -0.000000
vn -1.000000 0.000000 -0.000000
vn -1.000000 0.000000 -0.000000
vn -1.000000 0.000000 -0.000000
vn 1.000000 0.000000 0.000000
vn 1.000000 0.000000 0.000000
vn 1.000000 0.000000 0.000000
usemtl Steel_-_Satin
f 1/1/1 2/2/2 20/3/3
f 20/3/3 2/2/2 3/4/4
f 20/3/3 3/4/4 4/5/5
f 20/3/3 4/5/5 19/6/6
f 19/6/6 4/5/5 5/7/7
f 19/6/6 5/7/7 18/8/8
f 18/8/8 5/7/7 17/9/9
f 17/9/9 5/7/7 6/10/10
f 17/9/9 6/10/10 7/11/11
f 17/9/9 7/11/11 16/12/12
f 16/12/12 7/11/11 8/13/13
f 16/12/12 8/13/13 15/14/14
f 15/14/14 8/13/13 14/15/15
f 14/15/15 8/13/13 9/16/16
f 14/15/15 9/16/16 13/17/17
f 13/17/17 9/16/16 10/18/18
f 13/17/17 10/18/18 11/19/19
f 11/19/19 12/20/20 13/17/17
f 9/21/21 21/22/22 10/23/23
f 10/23/23 21/22/22 22/24/24
f 13/25/25 23/26/26 14/27/27
f 14/27/27 23/26/26 24/28/28
f 21/29/29 9/30/30 25/31/31
f 25/31/31 9/30/30 8/32/32
f 14/33/33 24/34/34 15/35/35
f 15/35/35 24/34/34 26/36/36
f 25/37/37 8/38/38 27/39/39
f 27/39/39 8/38/38 7/40/40
f 15/41/41 26/42/42 16/43/43
f 16/43/43 26/42/42 28/44/44
f 27/45/45 7/46/46 29/47/47
f 29/47/47 7/46/46 6/48/48
f 16/49/49 28/50/50 17/51/51
f 17/51/51 28/50/50 30/52/52
f 29/53/53 6/54/54 31/55/55
f 31/55/55 6/54/54 5/56/56
f 17/57/57 30/58/58 18/59/59
f 18/59/59 30/58/58 32/60/60
f 31/61/61 5/62/62 33/63/63
f 33/63/63 5/62/62 4/64/64
f 18/65/65 32/66/66 19/67/67
f 19/67/67 32/66/66 34/68/68
f 35/69/69 20/70/70 34/71/71
f 34/71/71 20/70/70 19/72/72
f 33/73/73 4/74/74 36/75/75
f 36/75/75 4/74/74 3/76/76
f 37/77/77 36/78/78 2/79/79
f 2/79/79 36/78/78 3/80/80
f 38/81/81 11/82/82 22/83/83
f 22/83/83 11/82/82 10/84/84
f 35/85/85 39/86/86 1/87/87
f 1/87/87 39/86/86 40/88/88
f 1/87/87 40/88/88 43/89/89
f 43/89/89 40/88/88 41/90/90
f 43/89/89 41/90/90 42/91/91
f 1/87/87 20/92/92 35/85/85
f 11/93/93 44/94/94 12/95/95
f 12/95/95 44/94/94 45/96/96
f 2/97/97 1/98/98 46/99/99
f 46/99/99 1/98/98 43/100/100
f 37/101/101 2/102/97 38/103/102
f 38/103/102 2/102/97 11/104/93
f 2/105/79 46/106/103 47/107/104
f 47/107/104 46/106/103 48/108/105
f 49/109/106 44/110/107 50/111/108
f 50/111/108 44/110/107 11/112/82
f 50/111/109 11/112/19 47/113/110
f 47/113/110 11/114/19 2/115/2
f 38/116/111 39/117/112 37/118/113
f 37/118/113 39/117/112 35/119/114
f 37/118/113 35/119/114 36/120/115
f 36/120/115 35/119/114 33/121/116
f 33/121/116 35/119/114 34/122/117
f 33/121/116 34/122/117 31/123/118
f 31/123/118 34/122/117 32/124/119
f 31/123/118 32/124/119 30/125/120
f 22/126/121 23/127/122 38/116/111
f 38/116/111 23/127/122 51/128/123
f 38/116/111 51/128/123 39/117/112
f 22/126/121 21/129/124 23/127/122
f 23/127/122 21/129/124 24/130/125
f 24/130/125 21/129/124 25/131/126
f 24/130/125 25/131/126 26/132/127
f 26/132/127 25/131/126 28/133/128
f 28/133/128 25/131/126 27/134/129
f 28/133/128 27/134/129 30/125/120
f 30/125/120 27/134/129 29/135/130
f 30/125/120 29/135/130 31/123/118
f 43/136/131 42/137/132 46/138/133
f 46/138/133 42/137/132 66/139/134
f 66/139/134 42/137/132 65/140/135
f 65/140/135 42/137/132 52/141/136
f 65/140/135 52/141/136 64/142/137
f 64/142/137 52/141/136 53/143/138
f 64/142/137 53/143/138 54/144/139
f 64/142/137 54/144/139 63/145/140
f 63/145/140 54/144/139 55/146/141
f 63/145/140 55/146/141 62/147/142
f 62/147/142 55/146/141 61/148/143
f 61/148/143 55/146/141 56/149/144
f 61/148/143 56/149/144 57/150/145
f 61/148/143 57/150/145 60/151/146
f 60/151/146 57/150/145 58/152/147
f 60/151/146 58/152/147 59/153/148
f 59/153/148 58/152/147 44/154/149
f 44/154/149 58/152/147 45/155/150
f 68/156/151 41/157/152 67/158/153
f 67/158/153 41/157/152 40/159/154
f 67/158/153 40/159/154 77/160/155
f 68/156/151 69/161/156 41/157/152
f 41/157/152 69/161/156 84/162/157
f 84/162/157 69/161/156 70/163/158
f 84/162/157 70/163/158 83/164/159
f 83/164/159 70/163/158 82/165/160
f 82/165/160 70/163/158 71/166/161
f 82/165/160 71/166/161 72/167/162
f 82/165/160 72/167/162 81/168/163
f 81/168/163 72/167/162 73/169/164
f 81/168/163 73/169/164 80/170/165
f 80/170/165 73/169/164 79/171/166
f 79/171/166 73/169/164 74/172/167
f 79/171/166 74/172/167 78/173/168
f 78/173/168 74/172/167 75/174/169
f 78/173/168 75/174/169 76/175/170
f 78/173/168 76/175/170 77/160/155
f 77/160/155 76/175/170 67/158/153
f 74/176/171 60/177/172 75/178/173
f 75/178/173 60/177/172 59/179/174
f 78/180/175 58/181/176 79/182/177
f 79/182/177 58/181/176 57/183/178
f 60/184/179 74/185/180 61/186/181
f 61/186/181 74/185/180 73/187/182
f 56/188/183 80/189/184 57/190/185
f 57/190/185 80/189/184 79/191/186
f 61/192/187 73/193/188 62/194/189
f 62/194/189 73/193/188 72/195/190
f 55/196/191 81/197/192 56/198/193
f 56/198/193 81/197/192 80/199/194
f 62/200/195 72/201/196 63/202/197
f 63/202/197 72/201/196 71/203/198
f 54/204/199 82/205/200 55/206/201
f 55/206/201 82/205/200 81/207/202
f 63/208/203 71/209/204 64/210/205
f 64/210/205 71/209/204 70/211/206
f 53/212/207 83/213/208 54/214/209
f 54/214/209 83/213/208 82/215/210
f 64/216/211 70/217/212 65/218/213
f 65/218/213 70/217/212 69/219/214
f 52/220/215 84/221/216 53/222/217
f 53/222/217 84/221/216 83/223/218
f 42/224/219 41/225/220 52/226/221
f 52/226/221 41/225/220 84/227/222
f 65/228/223 69/229/224 66/230/225
f 66/230/225 69/229/224 68/231/226
f 67/232/227 46/233/103 68/234/228
f 68/234/228 46/233/103 66/235/229
f 46/236/99 67/237/230 44/238/94
f 44/238/94 67/237/230 76/239/231
f 77/240/232 50/241/233 51/242/234
f 51/242/234 50/241/233 47/243/235
f 51/242/234 47/243/235 39/244/236
f 39/244/236 47/243/235 40/245/237
f 40/245/237 47/243/235 48/246/238
f 40/245/237 48/246/238 77/240/232
f 77/240/232 48/246/238 49/247/239
f 77/240/232 49/247/239 50/241/233
f 49/248/240 48/249/241 44/250/149
f 44/250/149 48/249/241 46/251/133
f 45/252/242 77/253/243 12/254/244
f 12/254/244 77/253/243 51/255/245
f 12/254/244 51/255/245 23/256/246
f 58/257/247 78/258/248 45/252/242
f 45/252/242 78/258/248 77/253/243
f 23/256/246 13/259/249 12/254/244
f 44/260/107 76/261/250 59/262/251
f 59/262/251 76/261/250 75/263/252
# 84 vertices
# 263 texture params
# 252 normals
# 176 facets

# 1 groups
