# WaveFront *.obj file (generated by Autodesk ATF)

mtllib RC_frame.mtl

g RC_frame

v 0.100000 -1.500000 -0.900000
v 0.100000 -1.400000 -0.900000
v 0.100000 -1.400000 0.900000
v 0.100000 -1.500000 0.900000
v -0.100000 -1.400000 -0.900000
v -0.100000 -1.400000 0.900000
v 0.000000 -1.600000 -0.900000
v 0.000000 -1.600000 0.900000
v -0.100000 -1.600000 -0.900000
v -0.100000 -1.600000 0.900000
v 0.100000 1.355700 -0.900000
v 3.715200 -0.000000 -0.900000
v 0.100000 -1.355700 -0.900000
v -0.100000 -1.644300 -0.900000
v 4.284800 0.000000 -0.900000
v -0.100000 1.644300 -0.900000
v -0.100000 1.600000 -0.900000
v 0.000000 1.600000 -0.900000
v 0.100000 1.500000 -0.900000
v 0.100000 1.400000 -0.900000
v -0.100000 1.400000 -0.900000
v 3.900000 0.100000 -0.900000
v 4.000000 0.100000 -0.900000
v 4.100000 0.000000 -0.900000
v 4.000000 -0.100000 -0.900000
v 3.900000 -0.100000 -0.900000
v 4.000000 -0.100000 0.900000
v 4.100000 0.000000 0.900000
v 4.000000 0.100000 0.900000
v 3.900000 0.100000 0.900000
v 3.900000 -0.100000 0.900000
v -0.100000 1.400000 0.900000
v 0.100000 1.400000 0.900000
v 0.100000 1.500000 0.900000
v 0.000000 1.600000 0.900000
v -0.100000 1.600000 0.900000
v -0.100000 1.644300 0.900000
v 4.284800 0.000000 0.900000
v -0.100000 -1.644300 0.900000
v 3.715200 -0.000000 0.900000
v 0.100000 1.355700 0.900000
v 0.100000 -1.355700 0.900000
v 0.100000 -1.355700 -1.100000
v 0.100000 1.355700 -1.100000
v -0.100000 -1.644300 1.100000
v -0.100000 1.644300 1.100000
v -0.100000 1.644300 -1.100000
v -0.100000 -1.644300 -1.100000
v 3.715200 -0.000000 -1.100000
v 4.284800 0.000000 -1.100000
v 0.100000 -1.355700 1.100000
v 0.100000 1.355700 1.100000
v 3.715200 -0.000000 1.100000
v 4.284800 0.000000 1.100000
vt -0.100000 0.100000 0.000000
vt -0.000000 0.100000 0.000000
vt -0.100000 1.900000 0.000000
vt -0.000000 1.900000 0.000000
vt -0.200000 0.100000 0.000000
vt -0.000000 0.100000 0.000000
vt -0.200000 1.900000 0.000000
vt -0.000000 1.900000 0.000000
vt 0.100000 -0.070711 0.000000
vt 1.900000 -0.070711 0.000000
vt 0.100000 0.070711 0.000000
vt 1.900000 0.070711 0.000000
vt -0.200000 0.100000 0.000000
vt -0.100000 0.100000 0.000000
vt -0.200000 1.900000 0.000000
vt -0.100000 1.900000 0.000000
vt -0.200000 1.869334 0.000000
vt -0.228745 2.077480 0.000000
vt -2.738763 -1.039665 0.000000
vt -2.780242 -1.024110 0.000000
vt -2.850467 -1.211376 0.000000
vt -0.200000 -1.991701 0.000000
vt -0.158521 -2.007256 0.000000
vt -0.064888 -2.042368 0.000000
vt -0.041479 2.007256 0.000000
vt -0.006367 -2.171113 0.000000
vt -0.006367 2.100889 0.000000
vt 0.000000 -2.280301 0.000000
vt -0.000000 2.402668 0.000000
vt -0.228745 -2.194522 0.000000
vt -0.041479 -2.264746 0.000000
vt -3.079212 -1.125596 0.000000
vt -0.193633 2.171113 0.000000
vt -0.064888 2.229634 0.000000
vt -3.037733 -1.141151 0.000000
vt -3.002620 -1.047518 0.000000
vt -2.873875 -0.988998 0.000000
vt 0.064888 2.229634 0.000000
vt 0.000000 2.402668 0.000000
vt 0.006367 2.100889 0.000000
vt -0.000000 -2.280301 0.000000
vt 0.006367 -2.171113 0.000000
vt 0.041479 -2.264746 0.000000
vt 0.193633 2.171113 0.000000
vt 3.079212 -1.125596 0.000000
vt 3.002620 -1.047518 0.000000
vt 3.037733 -1.141151 0.000000
vt 2.873875 -0.988998 0.000000
vt 0.228745 2.077480 0.000000
vt 2.780242 -1.024110 0.000000
vt 2.738763 -1.039665 0.000000
vt 2.850467 -1.211376 0.000000
vt 0.228745 -2.194522 0.000000
vt 0.200000 -1.991701 0.000000
vt 0.158521 -2.007256 0.000000
vt 0.200000 1.869334 0.000000
vt 0.064888 -2.042368 0.000000
vt 0.041479 2.007256 0.000000
vt -0.100000 0.070711 0.000000
vt -1.900000 0.070711 0.000000
vt -0.100000 -0.070711 0.000000
vt -1.900000 -0.070711 0.000000
vt 0.100000 0.100000 0.000000
vt 0.200000 0.100000 0.000000
vt 0.100000 1.900000 0.000000
vt 0.200000 1.900000 0.000000
vt 0.000000 0.100000 0.000000
vt 0.100000 0.100000 0.000000
vt 0.000000 1.900000 0.000000
vt 0.100000 1.900000 0.000000
vt 0.000000 0.100000 0.000000
vt 0.200000 0.100000 0.000000
vt 0.000000 1.900000 0.000000
vt 0.200000 1.900000 0.000000
vt 0.000000 2.855700 0.000000
vt -0.200000 2.855700 0.000000
vt 0.000000 0.144300 0.000000
vt -0.200000 0.144300 0.000000
vt -0.200000 0.100000 0.000000
vt -0.000000 -0.144300 0.000000
vt -0.200000 2.900000 0.000000
vt -0.000000 3.144300 0.000000
vt -0.200000 3.100000 0.000000
vt -0.200000 3.144300 0.000000
vt -0.200000 -0.100000 0.000000
vt -2.000000 0.100000 0.000000
vt -2.000000 -0.100000 0.000000
vt -2.200000 -0.144300 0.000000
vt -2.000000 -0.144300 0.000000
vt -2.000000 2.900000 0.000000
vt -2.200000 3.144300 0.000000
vt -2.000000 3.100000 0.000000
vt -2.000000 3.144300 0.000000
vt -0.200000 -0.144300 0.000000
vt -0.000000 4.127702 0.000000
vt -0.200000 4.127702 0.000000
vt -0.000000 0.266667 0.000000
vt -0.200000 0.266667 0.000000
vt -0.200000 -0.266667 0.000000
vt -0.000000 -0.266667 0.000000
vt -0.200000 4.416302 0.000000
vt -0.000000 4.416302 0.000000
vt -0.200000 -2.280301 0.000000
vt -0.000000 -2.280301 0.000000
vt -0.200000 2.402668 0.000000
vt -0.000000 2.402668 0.000000
vt 2.538763 -1.039665 0.000000
vt -0.000000 -1.991701 0.000000
vt -0.200000 -2.280301 0.000000
vt 0.000000 1.869334 0.000000
vt -0.200000 2.402668 0.000000
vt 2.879212 -1.125596 0.000000
vt -0.000000 1.869334 0.000000
vt -0.200000 1.869334 0.000000
vt 0.000000 -1.991701 0.000000
vt -0.200000 -1.991701 0.000000
vt 1.900000 0.070711 0.000000
vt 0.100000 0.070711 0.000000
vt 1.900000 -0.070711 0.000000
vt 0.100000 -0.070711 0.000000
vt 1.900000 0.070711 0.000000
vt 0.100000 0.070711 0.000000
vt 1.900000 -0.070711 0.000000
vt 0.100000 -0.070711 0.000000
vt 0.100000 1.900000 0.000000
vt 0.000000 1.900000 0.000000
vt 0.100000 0.100000 0.000000
vt 0.000000 0.100000 0.000000
vt 0.200000 1.900000 0.000000
vt 0.000000 1.900000 0.000000
vt 0.200000 0.100000 0.000000
vt 0.000000 0.100000 0.000000
vt 0.200000 1.900000 0.000000
vt 0.100000 1.900000 0.000000
vt 0.200000 0.100000 0.000000
vt 0.100000 0.100000 0.000000
vt 0.200000 2.855700 0.000000
vt 0.000000 2.855700 0.000000
vt 0.200000 0.144300 0.000000
vt 0.000000 0.144300 0.000000
vt 0.200000 4.127702 0.000000
vt 0.000000 4.127702 0.000000
vt 0.200000 0.266667 0.000000
vt 0.000000 0.266667 0.000000
vt 0.200000 4.416302 0.000000
vt 0.000000 4.416302 0.000000
vt 0.200000 -0.266667 0.000000
vt 0.000000 -0.266667 0.000000
vt 0.200000 2.402668 0.000000
vt -0.000000 2.402668 0.000000
vt 0.200000 -2.280301 0.000000
vt 0.000000 -2.280301 0.000000
vt 0.000000 -1.991701 0.000000
vt 0.200000 -2.280301 0.000000
vt -0.000000 1.869334 0.000000
vt 0.200000 2.402668 0.000000
vt -2.879212 -1.125596 0.000000
vt -2.538763 -1.039665 0.000000
vt 0.200000 1.869334 0.000000
vt 0.000000 1.869334 0.000000
vt 0.200000 -1.991701 0.000000
vt 0.000000 -1.991701 0.000000
vn 1.000000 0.000000 0.000000
vn 1.000000 0.000000 0.000000
vn 1.000000 0.000000 0.000000
vn 1.000000 0.000000 0.000000
vn 0.000000 1.000000 0.000000
vn 0.000000 1.000000 0.000000
vn 0.000000 1.000000 0.000000
vn 0.000000 1.000000 0.000000
vn 0.707107 -0.707107 0.000000
vn 0.707107 -0.707107 0.000000
vn 0.707107 -0.707107 0.000000
vn 0.707107 -0.707107 0.000000
vn 0.000000 -1.000000 0.000000
vn 0.000000 -1.000000 0.000000
vn 0.000000 -1.000000 0.000000
vn 0.000000 -1.000000 0.000000
vn 0.000000 0.000000 1.000000
vn 0.000000 0.000000 1.000000
vn 0.000000 0.000000 1.000000
vn 0.000000 0.000000 1.000000
vn 0.000000 0.000000 1.000000
vn 0.000000 0.000000 1.000000
vn 0.000000 0.000000 1.000000
vn 0.000000 0.000000 1.000000
vn 0.000000 0.000000 1.000000
vn 0.000000 0.000000 1.000000
vn 0.000000 0.000000 1.000000
vn 0.000000 0.000000 1.000000
vn 0.000000 0.000000 1.000000
vn 0.000000 0.000000 1.000000
vn 0.000000 0.000000 1.000000
vn 0.000000 0.000000 1.000000
vn 0.000000 0.000000 1.000000
vn 0.000000 0.000000 1.000000
vn 0.000000 0.000000 1.000000
vn 0.000000 0.000000 1.000000
vn 0.000000 0.000000 1.000000
vn 0.000000 0.000000 -1.000000
vn 0.000000 0.000000 -1.000000
vn 0.000000 0.000000 -1.000000
vn 0.000000 0.000000 -1.000000
vn 0.000000 0.000000 -1.000000
vn 0.000000 0.000000 -1.000000
vn 0.000000 0.000000 -1.000000
vn 0.000000 0.000000 -1.000000
vn 0.000000 0.000000 -1.000000
vn 0.000000 0.000000 -1.000000
vn 0.000000 0.000000 -1.000000
vn 0.000000 0.000000 -1.000000
vn 0.000000 0.000000 -1.000000
vn 0.000000 0.000000 -1.000000
vn 0.000000 0.000000 -1.000000
vn 0.000000 0.000000 -1.000000
vn 0.000000 0.000000 -1.000000
vn 0.000000 0.000000 -1.000000
vn 0.000000 0.000000 -1.000000
vn 0.000000 0.000000 -1.000000
vn 0.000000 0.000000 -1.000000
vn 0.707107 0.707107 0.000000
vn 0.707107 0.707107 0.000000
vn 0.707107 0.707107 0.000000
vn 0.707107 0.707107 0.000000
vn 0.000000 1.000000 0.000000
vn 0.000000 1.000000 0.000000
vn 0.000000 1.000000 0.000000
vn 0.000000 1.000000 0.000000
vn 1.000000 0.000000 -0.000000
vn 1.000000 0.000000 -0.000000
vn 1.000000 0.000000 -0.000000
vn 1.000000 0.000000 -0.000000
vn 0.000000 -1.000000 0.000000
vn 0.000000 -1.000000 0.000000
vn 0.000000 -1.000000 0.000000
vn 0.000000 -1.000000 0.000000
vn 1.000000 -0.000000 0.000000
vn 1.000000 -0.000000 0.000000
vn 1.000000 -0.000000 0.000000
vn 1.000000 -0.000000 0.000000
vn -1.000000 0.000000 0.000000
vn -1.000000 0.000000 0.000000
vn -1.000000 0.000000 0.000000
vn -1.000000 0.000000 0.000000
vn -1.000000 0.000000 0.000000
vn -1.000000 0.000000 0.000000
vn -1.000000 0.000000 0.000000
vn -1.000000 0.000000 0.000000
vn -1.000000 0.000000 0.000000
vn -1.000000 0.000000 0.000000
vn -1.000000 0.000000 0.000000
vn -1.000000 0.000000 0.000000
vn -1.000000 0.000000 0.000000
vn -1.000000 0.000000 0.000000
vn -1.000000 0.000000 0.000000
vn -1.000000 0.000000 0.000000
vn -0.351123 -0.936329 0.000000
vn -0.351123 -0.936329 0.000000
vn -0.351123 -0.936329 0.000000
vn -0.351123 -0.936329 0.000000
vn 0.351123 0.936329 -0.000000
vn 0.351123 0.936329 -0.000000
vn 0.351123 0.936329 -0.000000
vn 0.351123 0.936329 -0.000000
vn 0.351123 -0.936329 0.000000
vn 0.351123 -0.936329 0.000000
vn 0.351123 -0.936329 0.000000
vn 0.351123 -0.936329 0.000000
vn 0.000000 -0.000000 -1.000000
vn 0.000000 -0.000000 -1.000000
vn 0.000000 -0.000000 -1.000000
vn 0.000000 -0.000000 -1.000000
vn 0.000000 -0.000000 -1.000000
vn 0.000000 -0.000000 -1.000000
vn -0.351123 0.936329 0.000000
vn -0.351123 0.936329 0.000000
vn -0.351123 0.936329 0.000000
vn -0.351123 0.936329 0.000000
vn 0.707107 -0.707107 0.000000
vn 0.707107 -0.707107 0.000000
vn 0.707107 -0.707107 0.000000
vn 0.707107 -0.707107 0.000000
vn 0.707107 0.707107 0.000000
vn 0.707107 0.707107 0.000000
vn 0.707107 0.707107 0.000000
vn 0.707107 0.707107 0.000000
vn 0.000000 1.000000 0.000000
vn 0.000000 1.000000 0.000000
vn 0.000000 1.000000 0.000000
vn 0.000000 1.000000 0.000000
vn -1.000000 -0.000000 -0.000000
vn -1.000000 -0.000000 -0.000000
vn -1.000000 -0.000000 -0.000000
vn -1.000000 -0.000000 -0.000000
vn 0.000000 -1.000000 0.000000
vn 0.000000 -1.000000 0.000000
vn 0.000000 -1.000000 0.000000
vn 0.000000 -1.000000 0.000000
vn 1.000000 -0.000000 0.000000
vn 1.000000 -0.000000 0.000000
vn 1.000000 -0.000000 0.000000
vn 1.000000 -0.000000 0.000000
vn -0.351123 -0.936329 0.000000
vn -0.351123 -0.936329 0.000000
vn -0.351123 -0.936329 0.000000
vn -0.351123 -0.936329 0.000000
vn 0.351123 0.936329 0.000000
vn 0.351123 0.936329 0.000000
vn 0.351123 0.936329 0.000000
vn 0.351123 0.936329 0.000000
vn 0.351123 -0.936329 0.000000
vn 0.351123 -0.936329 0.000000
vn 0.351123 -0.936329 0.000000
vn 0.351123 -0.936329 0.000000
vn 0.000000 -0.000000 1.000000
vn 0.000000 -0.000000 1.000000
vn 0.000000 -0.000000 1.000000
vn 0.000000 -0.000000 1.000000
vn 0.000000 -0.000000 1.000000
vn 0.000000 -0.000000 1.000000
vn -0.351123 0.936329 0.000000
vn -0.351123 0.936329 0.000000
vn -0.351123 0.936329 0.000000
vn -0.351123 0.936329 0.000000
usemtl Steel_-_Satin
f 1/1/1 2/2/2 4/3/3
f 4/3/3 2/2/2 3/4/4
f 2/5/5 5/6/6 3/7/7
f 3/7/7 5/6/6 6/8/8
f 1/9/9 4/10/10 7/11/11
f 7/11/11 4/10/10 8/12/12
f 9/13/13 7/14/14 10/15/15
f 10/15/15 7/14/14 8/16/16
f 12/17/17 22/18/18 11/19/19
f 11/19/19 22/18/18 20/20/20
f 11/19/19 20/20/20 21/21/21
f 13/22/22 2/23/23 12/17/17
f 12/17/17 2/23/23 1/24/24
f 12/17/17 1/24/24 26/25/25
f 26/25/25 1/24/24 7/26/26
f 26/25/25 7/26/26 25/27/27
f 25/27/27 7/26/26 14/28/28
f 25/27/27 14/28/28 15/29/29
f 2/23/23 13/22/22 5/30/30
f 5/30/30 13/22/22 11/19/19
f 5/30/30 11/19/19 21/21/21
f 7/26/26 9/31/31 14/28/28
f 16/32/32 23/33/33 15/29/29
f 15/29/29 23/33/33 24/34/34
f 15/29/29 24/34/34 25/27/27
f 17/35/35 18/36/36 16/32/32
f 16/32/32 18/36/36 23/33/33
f 18/36/36 19/37/37 23/33/33
f 23/33/33 19/37/37 22/18/18
f 22/18/18 19/37/37 20/20/20
f 26/25/25 22/18/18 12/17/17
f 28/38/38 38/39/39 27/40/40
f 27/40/40 38/39/39 39/41/41
f 27/40/40 39/41/41 8/42/42
f 8/42/42 39/41/41 10/43/43
f 28/38/38 29/44/44 38/39/39
f 38/39/39 29/44/44 37/45/45
f 37/45/45 29/44/44 35/46/46
f 37/45/45 35/46/46 36/47/47
f 35/46/46 29/44/44 34/48/48
f 34/48/48 29/44/44 30/49/49
f 34/48/48 30/49/49 33/50/50
f 33/50/50 30/49/49 41/51/51
f 33/50/50 41/51/51 32/52/52
f 32/52/52 41/51/51 6/53/53
f 6/53/53 41/51/51 42/54/54
f 6/53/53 42/54/54 3/55/55
f 3/55/55 42/54/54 40/56/56
f 3/55/55 40/56/56 4/57/57
f 4/57/57 40/56/56 31/58/58
f 4/57/57 31/58/58 8/42/42
f 8/42/42 31/58/58 27/40/40
f 41/51/51 30/49/49 40/56/56
f 40/56/56 30/49/49 31/58/58
f 18/59/59 35/60/60 19/61/61
f 19/61/61 35/60/60 34/62/62
f 18/63/63 17/64/64 35/65/65
f 35/65/65 17/64/64 36/66/66
f 20/67/67 19/68/68 33/69/69
f 33/69/69 19/68/68 34/70/70
f 21/71/71 20/72/72 32/73/73
f 32/73/73 20/72/72 33/74/74
f 13/75/75 43/76/76 11/77/77
f 11/77/77 43/76/76 44/78/78
f 21/79/79 47/80/80 5/81/81
f 5/81/81 47/80/80 48/82/82
f 5/81/81 48/82/82 9/83/83
f 9/83/83 48/82/82 14/84/84
f 47/80/80 21/79/79 17/85/85
f 17/85/85 21/79/79 32/86/86
f 17/85/85 32/86/86 36/87/87
f 36/87/87 32/86/86 46/88/88
f 36/87/87 46/88/88 37/89/89
f 32/86/86 6/90/90 46/88/88
f 46/88/88 6/90/90 45/91/91
f 45/91/91 6/90/90 10/92/92
f 45/91/91 10/92/92 39/93/93
f 6/90/90 5/81/81 10/92/92
f 10/92/92 5/81/81 9/83/83
f 17/85/85 16/94/94 47/80/80
f 11/95/95 44/96/96 12/97/97
f 12/97/97 44/96/96 49/98/98
f 15/99/99 50/100/100 16/101/101
f 16/101/101 50/100/100 47/102/102
f 14/103/103 48/104/104 15/105/105
f 15/105/105 48/104/104 50/106/106
f 44/107/107 43/108/108 48/109/109
f 48/109/109 43/108/108 49/110/110
f 48/109/109 49/110/110 50/111/111
f 50/111/111 49/110/110 47/112/112
f 47/112/112 49/110/110 44/107/107
f 47/112/112 44/107/107 48/109/109
f 12/113/113 49/114/114 13/115/115
f 13/115/115 49/114/114 43/116/116
f 24/117/117 28/118/118 25/119/119
f 25/119/119 28/118/118 27/120/120
f 23/121/121 29/122/122 24/123/123
f 24/123/123 29/122/122 28/124/124
f 23/125/125 22/126/126 29/127/127
f 29/127/127 22/126/126 30/128/128
f 22/129/129 26/130/130 30/131/131
f 30/131/131 26/130/130 31/132/132
f 26/133/133 25/134/134 31/135/135
f 31/135/135 25/134/134 27/136/136
f 51/137/137 42/138/138 52/139/139
f 52/139/139 42/138/138 41/140/140
f 52/141/141 41/142/142 53/143/143
f 53/143/143 41/142/142 40/144/144
f 37/145/145 46/146/146 38/147/147
f 38/147/147 46/146/146 54/148/148
f 38/149/149 54/150/150 39/151/151
f 39/151/151 54/150/150 45/152/152
f 51/153/153 45/154/154 53/155/155
f 53/155/155 45/154/154 54/156/156
f 53/155/155 54/156/156 46/157/157
f 45/154/154 51/153/153 52/158/158
f 45/154/154 52/158/158 46/157/157
f 46/157/157 52/158/158 53/155/155
f 53/159/159 40/160/160 51/161/161
f 51/161/161 40/160/160 42/162/162
# 54 vertices
# 162 texture params
# 162 normals
# 120 facets

# 1 groups
