# WaveFront *.obj file (generated by Autodesk ATF)

mtllib XOR.mtl

g XOR

v -0.500000 -1.050000 1.000000
v -0.500000 -1.050000 -1.000000
v -0.500000 1.050000 -1.000000
v -0.500000 1.050000 1.000000
v -0.750000 1.189340 -1.000000
v -0.750000 1.189340 1.000000
v -1.030330 1.469670 1.000000
v -1.030330 1.469670 -1.000000
v -0.750000 -1.189340 -1.000000
v -0.750000 -1.189340 1.000000
v -1.030330 -1.469670 -1.000000
v -1.030330 -1.469670 1.000000
v -0.500000 1.292893 1.000000
v -0.500000 1.292893 -1.000000
v -0.853553 1.646447 -1.000000
v -0.853553 1.646447 1.000000
v -0.853553 -1.646447 1.000000
v -0.853553 -1.646447 -1.000000
v -0.500000 -1.292893 -1.000000
v -0.500000 -1.292893 1.000000
v -0.500000 -1.300000 -1.000000
v -0.500000 -1.300000 1.000000
v -0.500000 1.300000 1.000000
v -0.500000 1.300000 -1.000000
v 0.000000 -1.300000 -1.000000
v 0.000000 -1.300000 1.000000
v 0.000000 -1.050000 1.000000
v 0.000000 -1.050000 -1.000000
v 0.000000 -1.500000 -1.000000
v 0.000000 -1.500000 1.000000
v 0.000000 1.050000 1.000000
v 0.000000 1.050000 -1.000000
v 0.000000 1.300000 1.000000
v 0.000000 1.300000 -1.000000
v 0.000000 1.500000 1.000000
v 0.000000 1.500000 -1.000000
v -0.500000 2.000000 -1.000000
v 1.500000 2.000000 -1.000000
v 1.822549 1.983639 -1.000000
v 2.110769 1.935519 -1.000000
v 2.366516 1.858225 -1.000000
v 2.592417 1.755478 -1.000000
v 2.791542 1.631715 -1.000000
v 2.967155 1.491730 -1.000000
v 3.122508 1.340355 -1.000000
v 3.260693 1.182199 -1.000000
v 3.496387 0.861181 -1.000000
v 3.691835 0.551613 -1.000000
v 3.857944 0.263692 -1.000000
v 4.000000 0.000000 -1.000000
v 3.857944 -0.263692 -1.000000
v 3.691835 -0.551613 -1.000000
v 3.496387 -0.861181 -1.000000
v 3.260693 -1.182199 -1.000000
v 3.122508 -1.340355 -1.000000
v 2.967155 -1.491730 -1.000000
v 2.791542 -1.631715 -1.000000
v 2.592417 -1.755478 -1.000000
v 2.366516 -1.858225 -1.000000
v 2.110769 -1.935519 -1.000000
v 1.822549 -1.983639 -1.000000
v 1.500000 -2.000000 -1.000000
v -0.500000 -2.000000 -1.000000
v -0.500000 2.000000 1.000000
v 1.500000 2.000000 1.000000
v 1.822549 1.983639 1.000000
v 2.110769 1.935519 1.000000
v 2.366516 1.858225 1.000000
v 2.592417 1.755478 1.000000
v 2.791542 1.631715 1.000000
v 2.967155 1.491730 1.000000
v 3.122508 1.340355 1.000000
v 3.260693 1.182199 1.000000
v 3.496387 0.861181 1.000000
v 3.691835 0.551613 1.000000
v 3.857944 0.263692 1.000000
v 4.000000 0.000000 1.000000
v 3.857944 -0.263692 1.000000
v 3.691835 -0.551613 1.000000
v 3.496387 -0.861181 1.000000
v 3.260693 -1.182199 1.000000
v 3.122508 -1.340355 1.000000
v 2.967155 -1.491730 1.000000
v 2.791542 -1.631715 1.000000
v 2.592417 -1.755478 1.000000
v 2.366516 -1.858225 1.000000
v 2.110769 -1.935519 1.000000
v 1.822549 -1.983639 1.000000
v 1.500000 -2.000000 1.000000
v -0.500000 -2.000000 1.000000
vt -2.550000 -1.000000 0.000000
vt -0.450000 -1.000000 0.000000
vt -2.550000 1.000000 0.000000
vt -0.450000 1.000000 0.000000
vt 0.396447 1.000000 0.000000
vt 0.000000 1.000000 0.000000
vt 0.396447 -1.000000 0.000000
vt 0.000000 -1.000000 0.000000
vt 2.689340 1.000000 0.000000
vt 0.310660 1.000000 0.000000
vt 2.689340 -1.000000 0.000000
vt 0.310660 -1.000000 0.000000
vt 0.707107 1.000000 0.000000
vt 0.310660 1.000000 0.000000
vt 0.707107 -1.000000 0.000000
vt 0.310660 -1.000000 0.000000
vt -0.500000 -1.000000 0.000000
vt -0.000000 -1.000000 0.000000
vt -0.500000 1.000000 0.000000
vt -0.000000 1.000000 0.000000
vt -0.707107 -1.000000 0.000000
vt -0.207107 -1.000000 0.000000
vt -0.707107 1.000000 0.000000
vt -0.207107 1.000000 0.000000
vt 1.000000 0.250000 0.000000
vt -1.000000 0.250000 0.000000
vt 1.000000 0.000000 0.000000
vt -1.000000 0.000000 0.000000
vt -1.000000 -0.250000 0.000000
vt 1.000000 -0.250000 0.000000
vt -1.000000 0.000000 0.000000
vt 1.000000 0.000000 0.000000
vt 1.000000 0.117893 0.000000
vt 1.000000 0.125000 0.000000
vt -1.000000 0.117893 0.000000
vt -1.000000 0.125000 0.000000
vt -1.000000 0.117893 0.000000
vt 1.000000 0.117893 0.000000
vt -1.000000 0.125000 0.000000
vt 1.000000 0.125000 0.000000
vt -2.000000 0.000000 0.000000
vt -0.000000 -0.000000 0.000000
vt -2.000000 0.500000 0.000000
vt -0.000000 0.500000 0.000000
vt -2.000000 0.000000 0.000000
vt -0.000000 0.000000 0.000000
vt -2.000000 0.500000 0.000000
vt -0.000000 0.500000 0.000000
vt 2.800000 1.000000 0.000000
vt 2.800000 -1.000000 0.000000
vt 3.000000 1.000000 0.000000
vt 3.000000 -1.000000 0.000000
vt 2.550000 1.000000 0.000000
vt 0.450000 1.000000 0.000000
vt 2.550000 -1.000000 0.000000
vt 0.450000 -1.000000 0.000000
vt -0.000000 0.000000 0.000000
vt 2.000000 0.000000 0.000000
vt 0.000000 0.500000 0.000000
vt 2.000000 0.500000 0.000000
vt 0.000000 0.000000 0.000000
vt 2.000000 0.000000 0.000000
vt 0.000000 0.500000 0.000000
vt 2.000000 0.500000 0.000000
vt 0.200000 1.000000 0.000000
vt 0.000000 1.000000 0.000000
vt 0.200000 -1.000000 0.000000
vt 0.000000 -1.000000 0.000000
vt 1.750000 -1.050000 0.000000
vt 2.250000 -1.292893 0.000000
vt 2.250000 -1.050000 0.000000
vt 2.500000 -1.189340 0.000000
vt 2.250000 1.050000 0.000000
vt 2.500000 1.189340 0.000000
vt 2.250000 1.292893 0.000000
vt 2.780330 1.469670 0.000000
vt 2.603553 1.646447 0.000000
vt 1.750000 1.050000 0.000000
vt -1.746387 0.861181 0.000000
vt -1.746387 -0.861181 0.000000
vt -1.510693 -1.182199 0.000000
vt 1.750000 1.300000 0.000000
vt 0.250000 2.000000 0.000000
vt 1.750000 1.500000 0.000000
vt 2.250000 2.000000 0.000000
vt 2.603553 -1.646447 0.000000
vt 2.780330 -1.469670 0.000000
vt 2.250000 1.300000 0.000000
vt -0.072549 1.983639 0.000000
vt -0.360769 1.935519 0.000000
vt -0.616516 1.858225 0.000000
vt -0.842417 1.755478 0.000000
vt -1.041542 1.631715 0.000000
vt -1.217155 1.491730 0.000000
vt -1.372508 1.340355 0.000000
vt -1.510693 1.182199 0.000000
vt -1.941835 -0.551613 0.000000
vt -1.941835 0.551613 0.000000
vt -2.107944 -0.263692 0.000000
vt -2.107944 0.263692 0.000000
vt -2.250000 0.000000 0.000000
vt -1.372508 -1.340355 0.000000
vt -1.217155 -1.491730 0.000000
vt -1.041542 -1.631715 0.000000
vt -0.842417 -1.755478 0.000000
vt -0.616516 -1.858225 0.000000
vt -0.360769 -1.935519 0.000000
vt -0.072549 -1.983639 0.000000
vt 0.250000 -2.000000 0.000000
vt 1.750000 -1.300000 0.000000
vt 1.750000 -1.500000 0.000000
vt 2.250000 -2.000000 0.000000
vt 2.250000 -1.300000 0.000000
vt 0.707107 1.000000 0.000000
vt 0.000000 1.000000 0.000000
vt 0.707107 -1.000000 0.000000
vt 0.000000 -1.000000 0.000000
vt 2.000000 1.000000 0.000000
vt -0.000000 1.000000 0.000000
vt 2.000000 -1.000000 0.000000
vt 0.000000 -1.000000 0.000000
vt -0.206613 1.000000 0.000000
vt 0.000000 -1.000000 0.000000
vt -0.206613 -1.000000 0.000000
vt -0.413226 1.000000 0.000000
vt -0.413226 -1.000000 0.000000
vt -0.619838 1.000000 0.000000
vt -0.619838 -1.000000 0.000000
vt -0.826451 1.000000 0.000000
vt -0.826451 -1.000000 0.000000
vt -1.033064 1.000000 0.000000
vt -1.033064 -1.000000 0.000000
vt -1.239677 1.000000 0.000000
vt -1.239677 -1.000000 0.000000
vt -1.446289 1.000000 0.000000
vt -1.446289 -1.000000 0.000000
vt -1.652902 1.000000 0.000000
vt -1.652902 -1.000000 0.000000
vt -2.066128 1.000000 0.000000
vt -2.066128 -1.000000 0.000000
vt -2.479353 1.000000 0.000000
vt -2.479353 -1.000000 0.000000
vt -2.892579 1.000000 0.000000
vt -2.892579 -1.000000 0.000000
vt -3.305805 1.000000 0.000000
vt -3.305805 -1.000000 0.000000
vt 3.305625 1.000000 0.000000
vt 2.892421 1.000000 0.000000
vt 3.305625 -1.000000 0.000000
vt 2.892421 -1.000000 0.000000
vt 2.479218 1.000000 0.000000
vt 2.479218 -1.000000 0.000000
vt 2.066015 1.000000 0.000000
vt 2.066015 -1.000000 0.000000
vt 1.652812 1.000000 0.000000
vt 1.652812 -1.000000 0.000000
vt 1.446211 1.000000 0.000000
vt 1.446211 -1.000000 0.000000
vt 1.239609 1.000000 0.000000
vt 1.239609 -1.000000 0.000000
vt 1.033008 1.000000 0.000000
vt 1.033008 -1.000000 0.000000
vt 0.826406 1.000000 0.000000
vt 0.826406 -1.000000 0.000000
vt 0.619805 1.000000 0.000000
vt 0.619805 -1.000000 0.000000
vt 0.413203 1.000000 0.000000
vt 0.413203 -1.000000 0.000000
vt 0.206602 1.000000 0.000000
vt 0.206602 -1.000000 0.000000
vt 0.000000 1.000000 0.000000
vt 0.000000 -1.000000 0.000000
vt 2.000000 1.000000 0.000000
vt 0.000000 1.000000 0.000000
vt 2.000000 -1.000000 0.000000
vt 0.000000 -1.000000 0.000000
vt 0.707107 1.000000 0.000000
vt 0.000000 1.000000 0.000000
vt 0.707107 -1.000000 0.000000
vt -0.000000 -1.000000 0.000000
vt -2.250000 -1.300000 0.000000
vt -1.750000 -1.300000 0.000000
vt -2.250000 -1.292893 0.000000
vt -1.750000 -1.050000 0.000000
vt -2.250000 -1.050000 0.000000
vt -0.250000 -2.000000 0.000000
vt -1.750000 -1.500000 0.000000
vt -2.250000 -2.000000 0.000000
vt 0.072549 -1.983639 0.000000
vt 0.360769 -1.935519 0.000000
vt 0.616516 -1.858225 0.000000
vt 0.842417 -1.755478 0.000000
vt 1.041542 -1.631715 0.000000
vt 1.217155 -1.491730 0.000000
vt 1.372508 -1.340355 0.000000
vt 1.510693 -1.182199 0.000000
vt 1.746387 -0.861181 0.000000
vt 1.746387 0.861181 0.000000
vt 1.941835 -0.551613 0.000000
vt 1.941835 0.551613 0.000000
vt 2.107944 -0.263692 0.000000
vt 2.107944 0.263692 0.000000
vt 2.250000 0.000000 0.000000
vt -1.750000 1.050000 0.000000
vt 1.510693 1.182199 0.000000
vt 1.372508 1.340355 0.000000
vt 1.217155 1.491730 0.000000
vt 1.041542 1.631715 0.000000
vt 0.842417 1.755478 0.000000
vt 0.616516 1.858225 0.000000
vt 0.360769 1.935519 0.000000
vt 0.072549 1.983639 0.000000
vt -0.250000 2.000000 0.000000
vt -1.750000 1.300000 0.000000
vt -2.250000 1.292893 0.000000
vt -2.250000 1.300000 0.000000
vt -2.250000 2.000000 0.000000
vt -1.750000 1.500000 0.000000
vt -2.603553 1.646447 0.000000
vt -2.780330 1.469670 0.000000
vt -2.500000 1.189340 0.000000
vt -2.250000 1.050000 0.000000
vt -2.500000 -1.189340 0.000000
vt -2.780330 -1.469670 0.000000
vt -2.603553 -1.646447 0.000000
vn 1.000000 -0.000000 -0.000000
vn 1.000000 -0.000000 -0.000000
vn 1.000000 -0.000000 -0.000000
vn 1.000000 -0.000000 -0.000000
vn -0.707107 -0.707107 0.000000
vn -0.707107 -0.707107 0.000000
vn -0.707107 -0.707107 0.000000
vn -0.707107 -0.707107 0.000000
vn -1.000000 0.000000 0.000000
vn -1.000000 0.000000 0.000000
vn -1.000000 0.000000 0.000000
vn -1.000000 0.000000 0.000000
vn -0.707107 0.707107 0.000000
vn -0.707107 0.707107 0.000000
vn -0.707107 0.707107 0.000000
vn -0.707107 0.707107 0.000000
vn 0.707107 0.707107 -0.000000
vn 0.707107 0.707107 -0.000000
vn 0.707107 0.707107 -0.000000
vn 0.707107 0.707107 -0.000000
vn 0.707107 -0.707107 -0.000000
vn 0.707107 -0.707107 -0.000000
vn 0.707107 -0.707107 -0.000000
vn 0.707107 -0.707107 -0.000000
vn -0.707107 0.707107 -0.000000
vn -0.707107 0.707107 -0.000000
vn -0.707107 0.707107 -0.000000
vn -0.707107 0.707107 -0.000000
vn -0.707107 -0.707107 0.000000
vn -0.707107 -0.707107 0.000000
vn -0.707107 -0.707107 0.000000
vn -0.707107 -0.707107 0.000000
vn -1.000000 0.000000 0.000000
vn -1.000000 0.000000 0.000000
vn -1.000000 0.000000 0.000000
vn -1.000000 0.000000 0.000000
vn -1.000000 0.000000 0.000000
vn -1.000000 0.000000 0.000000
vn -1.000000 0.000000 0.000000
vn -1.000000 0.000000 0.000000
vn 0.000000 -1.000000 0.000000
vn 0.000000 -1.000000 0.000000
vn 0.000000 -1.000000 0.000000
vn 0.000000 -1.000000 0.000000
vn -0.000000 1.000000 -0.000000
vn -0.000000 1.000000 -0.000000
vn -0.000000 1.000000 -0.000000
vn -0.000000 1.000000 -0.000000
vn -1.000000 0.000000 0.000000
vn -1.000000 0.000000 0.000000
vn -1.000000 0.000000 0.000000
vn -1.000000 0.000000 0.000000
vn -1.000000 0.000000 0.000000
vn -1.000000 0.000000 0.000000
vn -1.000000 0.000000 0.000000
vn -1.000000 0.000000 0.000000
vn 0.000000 1.000000 -0.000000
vn 0.000000 1.000000 -0.000000
vn 0.000000 1.000000 -0.000000
vn 0.000000 1.000000 -0.000000
vn -0.000000 -1.000000 -0.000000
vn -0.000000 -1.000000 -0.000000
vn -0.000000 -1.000000 -0.000000
vn -0.000000 -1.000000 -0.000000
vn -1.000000 0.000000 0.000000
vn -1.000000 0.000000 0.000000
vn -1.000000 0.000000 0.000000
vn -1.000000 0.000000 0.000000
vn -0.000000 -0.000000 -1.000000
vn -0.000000 -0.000000 -1.000000
vn -0.000000 -0.000000 -1.000000
vn -0.000000 -0.000000 -1.000000
vn -0.000000 -0.000000 -1.000000
vn -0.000000 -0.000000 -1.000000
vn -0.000000 -0.000000 -1.000000
vn -0.000000 -0.000000 -1.000000
vn -0.000000 -0.000000 -1.000000
vn -0.000000 -0.000000 -1.000000
vn -0.000000 -0.000000 -1.000000
vn -0.000000 -0.000000 -1.000000
vn -0.000000 -0.000000 -1.000000
vn -0.000000 -0.000000 -1.000000
vn -0.000000 -0.000000 -1.000000
vn -0.000000 -0.000000 -1.000000
vn -0.000000 -0.000000 -1.000000
vn -0.000000 -0.000000 -1.000000
vn -0.000000 -0.000000 -1.000000
vn -0.000000 -0.000000 -1.000000
vn -0.000000 -0.000000 -1.000000
vn -0.000000 -0.000000 -1.000000
vn -0.000000 -0.000000 -1.000000
vn -0.000000 -0.000000 -1.000000
vn -0.000000 -0.000000 -1.000000
vn -0.000000 -0.000000 -1.000000
vn -0.000000 -0.000000 -1.000000
vn -0.000000 -0.000000 -1.000000
vn -0.000000 -0.000000 -1.000000
vn -0.000000 -0.000000 -1.000000
vn -0.000000 -0.000000 -1.000000
vn -0.000000 -0.000000 -1.000000
vn -0.000000 -0.000000 -1.000000
vn -0.000000 -0.000000 -1.000000
vn -0.000000 -0.000000 -1.000000
vn -0.000000 -0.000000 -1.000000
vn -0.000000 -0.000000 -1.000000
vn -0.000000 -0.000000 -1.000000
vn -0.000000 -0.000000 -1.000000
vn -0.000000 -0.000000 -1.000000
vn -0.000000 -0.000000 -1.000000
vn -0.000000 -0.000000 -1.000000
vn -0.000000 -0.000000 -1.000000
vn -0.000000 -0.000000 -1.000000
vn -0.000000 -0.000000 -1.000000
vn -0.707107 -0.707107 0.000000
vn -0.707107 -0.707107 0.000000
vn -0.707107 -0.707107 0.000000
vn -0.707107 -0.707107 0.000000
vn 0.000000 1.000000 0.000000
vn 0.000000 1.000000 0.000000
vn 0.000000 1.000000 0.000000
vn 0.000000 1.000000 0.000000
vn 0.106076 0.994358 -0.000000
vn 0.106076 0.994358 -0.000000
vn 0.226803 0.973941 -0.000000
vn 0.226803 0.973941 -0.000000
vn 0.353123 0.935577 -0.000000
vn 0.353123 0.935577 -0.000000
vn 0.473756 0.880656 -0.000000
vn 0.473756 0.880656 -0.000000
vn 0.579048 0.815293 -0.000000
vn 0.579048 0.815293 -0.000000
vn 0.663992 0.747739 -0.000000
vn 0.663992 0.747739 -0.000000
vn 0.728385 0.685168 -0.000000
vn 0.728385 0.685168 -0.000000
vn 0.775018 0.631940 -0.000000
vn 0.775018 0.631940 -0.000000
vn 0.830530 0.556974 -0.000000
vn 0.830530 0.556974 -0.000000
vn 0.857862 0.513880 -0.000000
vn 0.857862 0.513880 -0.000000
vn 0.873718 0.486432 -0.000000
vn 0.873718 0.486432 -0.000000
vn 0.887346 0.461104 -0.000000
vn 0.887346 0.461104 -0.000000
vn 0.887346 -0.461104 0.000000
vn 0.873718 -0.486432 0.000000
vn 0.887346 -0.461104 0.000000
vn 0.873718 -0.486432 0.000000
vn 0.857862 -0.513880 0.000000
vn 0.857862 -0.513880 0.000000
vn 0.830530 -0.556974 0.000000
vn 0.830530 -0.556974 0.000000
vn 0.775018 -0.631940 0.000000
vn 0.775018 -0.631940 0.000000
vn 0.728385 -0.685168 0.000000
vn 0.728385 -0.685168 0.000000
vn 0.663992 -0.747739 0.000000
vn 0.663992 -0.747739 0.000000
vn 0.579048 -0.815293 0.000000
vn 0.579048 -0.815293 0.000000
vn 0.473756 -0.880656 0.000000
vn 0.473756 -0.880656 0.000000
vn 0.353123 -0.935577 0.000000
vn 0.353123 -0.935577 0.000000
vn 0.226803 -0.973941 0.000000
vn 0.226803 -0.973941 0.000000
vn 0.106076 -0.994358 0.000000
vn 0.106076 -0.994358 0.000000
vn 0.000000 -1.000000 0.000000
vn 0.000000 -1.000000 0.000000
vn 0.000000 -1.000000 0.000000
vn 0.000000 -1.000000 0.000000
vn -0.707107 0.707107 0.000000
vn -0.707107 0.707107 0.000000
vn -0.707107 0.707107 0.000000
vn -0.707107 0.707107 0.000000
vn 0.000000 0.000000 1.000000
vn 0.000000 0.000000 1.000000
vn 0.000000 0.000000 1.000000
vn 0.000000 0.000000 1.000000
vn 0.000000 0.000000 1.000000
vn 0.000000 0.000000 1.000000
vn 0.000000 0.000000 1.000000
vn 0.000000 0.000000 1.000000
vn 0.000000 0.000000 1.000000
vn 0.000000 0.000000 1.000000
vn 0.000000 0.000000 1.000000
vn 0.000000 0.000000 1.000000
vn 0.000000 0.000000 1.000000
vn 0.000000 0.000000 1.000000
vn 0.000000 0.000000 1.000000
vn 0.000000 0.000000 1.000000
vn 0.000000 0.000000 1.000000
vn 0.000000 0.000000 1.000000
vn 0.000000 0.000000 1.000000
vn 0.000000 0.000000 1.000000
vn 0.000000 0.000000 1.000000
vn 0.000000 0.000000 1.000000
vn 0.000000 0.000000 1.000000
vn 0.000000 0.000000 1.000000
vn 0.000000 0.000000 1.000000
vn 0.000000 0.000000 1.000000
vn 0.000000 0.000000 1.000000
vn 0.000000 0.000000 1.000000
vn 0.000000 0.000000 1.000000
vn 0.000000 0.000000 1.000000
vn 0.000000 0.000000 1.000000
vn 0.000000 0.000000 1.000000
vn 0.000000 0.000000 1.000000
vn 0.000000 0.000000 1.000000
vn 0.000000 0.000000 1.000000
vn 0.000000 0.000000 1.000000
vn 0.000000 0.000000 1.000000
vn 0.000000 0.000000 1.000000
vn 0.000000 0.000000 1.000000
vn 0.000000 0.000000 1.000000
vn 0.000000 0.000000 1.000000
vn 0.000000 0.000000 1.000000
vn 0.000000 0.000000 1.000000
vn 0.000000 0.000000 1.000000
vn 0.000000 0.000000 1.000000
usemtl Steel_-_Satin
f 2/1/1 3/2/2 1/3/3
f 1/3/3 3/2/2 4/4/4
f 6/5/5 7/6/6 5/7/7
f 5/7/7 7/6/6 8/8/8
f 10/9/9 6/10/10 9/11/11
f 9/11/11 6/10/10 5/12/12
f 12/13/13 10/14/14 11/15/15
f 11/15/15 10/14/14 9/16/16
f 14/17/17 15/18/18 13/19/19
f 13/19/19 15/18/18 16/20/20
f 18/21/21 19/22/22 17/23/23
f 17/23/23 19/22/22 20/24/24
f 16/25/25 15/26/26 7/27/27
f 7/27/27 15/26/26 8/28/28
f 18/29/29 17/30/30 11/31/31
f 11/31/31 17/30/30 12/32/32
f 19/33/33 21/34/34 20/35/35
f 20/35/35 21/34/34 22/36/36
f 14/37/37 13/38/38 24/39/39
f 24/39/39 13/38/38 23/40/40
f 25/41/41 26/42/42 21/43/43
f 21/43/43 26/42/42 22/44/44
f 27/45/45 28/46/46 1/47/47
f 1/47/47 28/46/46 2/48/48
f 26/49/49 25/50/50 30/51/51
f 30/51/51 25/50/50 29/52/52
f 27/53/53 31/54/54 28/55/55
f 28/55/55 31/54/54 32/56/56
f 33/57/57 34/58/58 23/59/59
f 23/59/59 34/58/58 24/60/60
f 32/61/61 31/62/62 3/63/63
f 3/63/63 31/62/62 4/64/64
f 33/65/65 35/66/66 34/67/67
f 34/67/67 35/66/66 36/68/68
f 28/69/69 19/70/70 2/71/71
f 2/71/71 19/70/70 9/72/72
f 2/71/71 9/72/72 3/73/73
f 3/73/73 9/72/72 5/74/74
f 3/73/73 5/74/74 14/75/75
f 14/75/75 5/74/74 8/76/76
f 14/75/75 8/76/76 15/77/77
f 32/78/78 47/79/79 28/69/69
f 28/69/69 47/79/79 53/80/80
f 28/69/69 53/80/80 54/81/81
f 3/73/73 14/75/75 32/78/78
f 32/78/78 14/75/75 34/82/82
f 32/78/78 34/82/82 38/83/83
f 38/83/83 34/82/82 36/84/84
f 38/83/83 36/84/84 37/85/85
f 18/86/86 11/87/87 19/70/70
f 19/70/70 11/87/87 9/72/72
f 14/75/75 24/88/88 34/82/82
f 38/83/83 39/89/89 32/78/78
f 32/78/78 39/89/89 40/90/90
f 32/78/78 40/90/90 41/91/91
f 41/91/91 42/92/92 32/78/78
f 32/78/78 42/92/92 43/93/93
f 32/78/78 43/93/93 44/94/94
f 44/94/94 45/95/95 32/78/78
f 32/78/78 45/95/95 46/96/96
f 32/78/78 46/96/96 47/79/79
f 53/80/80 47/79/79 52/97/97
f 52/97/97 47/79/79 48/98/98
f 52/97/97 48/98/98 51/99/99
f 51/99/99 48/98/98 49/100/100
f 51/99/99 49/100/100 50/101/101
f 54/81/81 55/102/102 28/69/69
f 28/69/69 55/102/102 56/103/103
f 28/69/69 56/103/103 57/104/104
f 57/104/104 58/105/105 28/69/69
f 28/69/69 58/105/105 59/106/106
f 28/69/69 59/106/106 60/107/107
f 60/107/107 61/108/108 28/69/69
f 28/69/69 61/108/108 62/109/109
f 28/69/69 62/109/109 25/110/110
f 25/110/110 62/109/109 29/111/111
f 29/111/111 62/109/109 63/112/112
f 21/113/113 19/70/70 25/110/110
f 25/110/110 19/70/70 28/69/69
f 35/114/114 64/115/115 36/116/116
f 36/116/116 64/115/115 37/117/117
f 64/118/118 65/119/119 37/120/120
f 37/120/120 65/119/119 38/121/121
f 65/119/119 66/122/122 38/123/121
f 38/123/121 66/122/122 39/124/123
f 39/124/123 66/122/122 67/125/124
f 39/124/123 67/125/124 40/126/125
f 40/126/125 67/125/124 68/127/126
f 40/126/125 68/127/126 41/128/127
f 41/128/127 68/127/126 69/129/128
f 41/128/127 69/129/128 42/130/129
f 42/130/129 69/129/128 70/131/130
f 42/130/129 70/131/130 43/132/131
f 43/132/131 70/131/130 71/133/132
f 43/132/131 71/133/132 44/134/133
f 44/134/133 71/133/132 72/135/134
f 44/134/133 72/135/134 45/136/135
f 45/136/135 72/135/134 73/137/136
f 45/136/135 73/137/136 46/138/137
f 46/138/137 73/137/136 74/139/138
f 46/138/137 74/139/138 47/140/139
f 47/140/139 74/139/138 75/141/140
f 47/140/139 75/141/140 48/142/141
f 48/142/141 75/141/140 76/143/142
f 48/142/141 76/143/142 49/144/143
f 49/144/143 76/143/142 77/145/144
f 49/144/143 77/145/144 50/146/145
f 77/147/146 78/148/147 50/149/148
f 50/149/148 78/148/147 51/150/149
f 51/150/149 78/148/147 79/151/150
f 51/150/149 79/151/150 52/152/151
f 52/152/151 79/151/150 80/153/152
f 52/152/151 80/153/152 53/154/153
f 53/154/153 80/153/152 81/155/154
f 53/154/153 81/155/154 54/156/155
f 54/156/155 81/155/154 82/157/156
f 54/156/155 82/157/156 55/158/157
f 55/158/157 82/157/156 83/159/158
f 55/158/157 83/159/158 56/160/159
f 56/160/159 83/159/158 84/161/160
f 56/160/159 84/161/160 57/162/161
f 57/162/161 84/161/160 85/163/162
f 57/162/161 85/163/162 58/164/163
f 58/164/163 85/163/162 86/165/164
f 58/164/163 86/165/164 59/166/165
f 59/166/165 86/165/164 87/167/166
f 59/166/165 87/167/166 60/168/167
f 60/168/167 87/167/166 88/169/168
f 60/168/167 88/169/168 61/170/169
f 61/170/169 88/169/168 89/171/170
f 61/170/169 89/171/170 62/172/171
f 89/173/170 90/174/172 62/175/171
f 62/175/171 90/174/172 63/176/173
f 90/177/174 30/178/175 63/179/176
f 63/179/176 30/178/175 29/180/177
f 22/181/178 26/182/179 20/183/180
f 20/183/180 26/182/179 27/184/181
f 20/183/180 27/184/181 1/185/182
f 27/184/181 26/182/179 89/186/183
f 89/186/183 26/182/179 30/187/184
f 89/186/183 30/187/184 90/188/185
f 89/186/183 88/189/186 27/184/181
f 27/184/181 88/189/186 87/190/187
f 27/184/181 87/190/187 86/191/188
f 86/191/188 85/192/189 27/184/181
f 27/184/181 85/192/189 84/193/190
f 27/184/181 84/193/190 83/194/191
f 83/194/191 82/195/192 27/184/181
f 27/184/181 82/195/192 81/196/193
f 27/184/181 81/196/193 80/197/194
f 27/184/181 80/197/194 74/198/195
f 74/198/195 80/197/194 79/199/196
f 74/198/195 79/199/196 75/200/197
f 75/200/197 79/199/196 78/201/198
f 75/200/197 78/201/198 76/202/199
f 76/202/199 78/201/198 77/203/200
f 27/184/181 74/198/195 31/204/201
f 31/204/201 74/198/195 73/205/202
f 31/204/201 73/205/202 72/206/203
f 72/206/203 71/207/204 31/204/201
f 31/204/201 71/207/204 70/208/205
f 31/204/201 70/208/205 69/209/206
f 69/209/206 68/210/207 31/204/201
f 31/204/201 68/210/207 67/211/208
f 31/204/201 67/211/208 66/212/209
f 66/212/209 65/213/210 31/204/201
f 31/204/201 65/213/210 33/214/211
f 31/204/201 33/214/211 13/215/212
f 13/215/212 33/214/211 23/216/213
f 64/217/214 35/218/215 65/213/210
f 65/213/210 35/218/215 33/214/211
f 16/219/216 7/220/217 13/215/212
f 13/215/212 7/220/217 6/221/218
f 13/215/212 6/221/218 4/222/219
f 4/222/219 6/221/218 10/223/220
f 4/222/219 10/223/220 1/185/182
f 1/185/182 10/223/220 20/183/180
f 10/223/220 12/224/221 20/183/180
f 20/183/180 12/224/221 17/225/222
f 4/222/219 31/204/201 13/215/212
# 90 vertices
# 225 texture params
# 222 normals
# 180 facets

# 1 groups
