# WaveFront *.obj file (generated by Autodesk ATF)

mtllib COORD.mtl

g COORD

v 0.500000 0.500000 -0.500000
v 0.500000 0.500000 0.500000
v 8.000000 0.500000 0.500000
v 8.000000 0.500000 -0.500000
v 8.000000 -1.000000 -1.000000
v 8.000000 -1.000000 1.000000
v 8.000000 1.000000 1.000000
v 8.000000 1.000000 -1.000000
v 8.000000 -0.500000 0.500000
v 8.000000 -0.500000 -0.500000
v 10.000000 0.000000 0.000000
v 0.500000 -0.500000 0.500000
v -0.500000 -0.500000 -0.500000
v 0.500000 -0.500000 7.500000
v -0.500000 -0.500000 7.500000
v 0.500000 8.000000 -0.500000
v 0.500000 8.000000 0.500000
v 0.500000 0.500000 7.500000
v -0.500000 0.500000 0.500000
v -0.500000 0.500000 7.500000
v 1.000000 1.000000 7.500000
v 1.000000 -1.000000 7.500000
v -1.000000 -1.000000 7.500000
v -1.000000 1.000000 7.500000
v -0.000000 -0.000000 9.500000
v -0.500000 8.000000 -0.500000
v 1.000000 8.000000 -1.000000
v 1.000000 8.000000 1.000000
v -1.000000 8.000000 1.000000
v -1.000000 8.000000 -1.000000
v -0.500000 8.000000 0.500000
v -0.000000 10.000000 0.000000
vt 0.000000 0.500000 0.000000
vt 1.000000 0.500000 0.000000
vt 0.000000 8.000000 0.000000
vt 1.000000 8.000000 0.000000
vt 1.000000 -1.000000 0.000000
vt -0.500000 -0.500000 0.000000
vt -1.000000 -1.000000 0.000000
vt -0.500000 0.500000 0.000000
vt -1.000000 1.000000 0.000000
vt 0.500000 0.500000 0.000000
vt 1.000000 1.000000 0.000000
vt 0.500000 -0.500000 0.000000
vt 0.000000 0.000000 0.000000
vt 2.000000 0.000000 0.000000
vt 1.000000 2.236068 0.000000
vt 0.000000 0.000000 0.000000
vt 0.000000 2.000000 0.000000
vt -2.236068 1.000000 0.000000
vt 0.000000 0.000000 0.000000
vt 2.000000 0.000000 0.000000
vt 1.000000 2.236068 0.000000
vt 0.000000 0.000000 0.000000
vt 0.000000 -2.000000 0.000000
vt 2.236068 -1.000000 0.000000
vt -0.000000 0.500000 0.000000
vt 1.000000 0.500000 0.000000
vt -0.000000 8.000000 0.000000
vt 1.000000 8.000000 0.000000
vt -0.000000 8.000000 0.000000
vt -0.000000 -0.000000 0.000000
vt 1.000000 1.000000 0.000000
vt 8.500000 -0.000000 0.000000
vt 8.500000 1.000000 0.000000
vt 1.000000 8.000000 0.000000
vt 0.000000 0.500000 0.000000
vt 1.000000 0.500000 0.000000
vt 0.000000 8.000000 0.000000
vt 1.000000 8.000000 0.000000
vt -7.000000 0.500000 0.000000
vt 0.000000 -0.500000 0.000000
vt -7.000000 -0.500000 0.000000
vt 0.000000 1.000000 0.000000
vt 1.000000 1.000000 0.000000
vt 0.000000 8.000000 0.000000
vt 1.000000 8.000000 0.000000
vt 1.000000 -1.000000 0.000000
vt -0.500000 -0.500000 0.000000
vt -1.000000 -1.000000 0.000000
vt -0.500000 0.500000 0.000000
vt -1.000000 1.000000 0.000000
vt 0.500000 0.500000 0.000000
vt 1.000000 1.000000 0.000000
vt 0.500000 -0.500000 0.000000
vt 0.000000 0.000000 0.000000
vt 2.000000 -0.000000 0.000000
vt 1.000000 2.236068 0.000000
vt 0.000000 0.000000 0.000000
vt 0.000000 2.000000 0.000000
vt -2.236068 1.000000 0.000000
vt 0.000000 0.000000 0.000000
vt 2.000000 0.000000 0.000000
vt 1.000000 2.236068 0.000000
vt 0.000000 0.000000 0.000000
vt 0.000000 -2.000000 0.000000
vt 2.236068 -1.000000 0.000000
vt -7.500000 0.500000 0.000000
vt -7.500000 -0.500000 0.000000
vt 0.000000 0.500000 0.000000
vt 1.000000 -0.500000 0.000000
vt 1.000000 8.000000 0.000000
vt 0.000000 8.000000 0.000000
vt 1.000000 -1.000000 0.000000
vt -0.500000 -0.500000 0.000000
vt -1.000000 -1.000000 0.000000
vt -0.500000 0.500000 0.000000
vt -1.000000 1.000000 0.000000
vt 0.500000 0.500000 0.000000
vt 1.000000 1.000000 0.000000
vt 0.500000 -0.500000 0.000000
vt 0.000000 0.000000 0.000000
vt 2.000000 0.000000 0.000000
vt 1.000000 2.236068 0.000000
vt 0.000000 0.000000 0.000000
vt -0.000000 2.000000 0.000000
vt -2.236068 1.000000 0.000000
vt 0.000000 0.000000 0.000000
vt 2.000000 0.000000 0.000000
vt 1.000000 2.236068 0.000000
vt 0.000000 0.000000 0.000000
vt -0.000000 -2.000000 0.000000
vt 2.236068 -1.000000 0.000000
vt -0.000000 0.500000 0.000000
vt 1.000000 0.500000 0.000000
vt -0.000000 8.000000 0.000000
vt 1.000000 8.000000 0.000000
vt 1.000000 8.000000 0.000000
vt -0.000000 8.000000 0.000000
vt 1.000000 0.500000 0.000000
vt -0.000000 -0.500000 0.000000
vt 8.000000 -0.500000 0.000000
vt 8.000000 0.500000 0.000000
vn -0.000000 1.000000 0.000000
vn -0.000000 1.000000 0.000000
vn -0.000000 1.000000 0.000000
vn -0.000000 1.000000 0.000000
vn -1.000000 -0.000000 -0.000000
vn -1.000000 -0.000000 -0.000000
vn -1.000000 -0.000000 -0.000000
vn -1.000000 -0.000000 -0.000000
vn -1.000000 -0.000000 -0.000000
vn -1.000000 -0.000000 -0.000000
vn -1.000000 -0.000000 -0.000000
vn -1.000000 -0.000000 -0.000000
vn 0.447214 -0.894427 -0.000000
vn 0.447214 -0.894427 -0.000000
vn 0.447214 -0.894427 -0.000000
vn 0.447214 -0.000000 -0.894427
vn 0.447214 -0.000000 -0.894427
vn 0.447214 -0.000000 -0.894427
vn 0.447214 0.894427 -0.000000
vn 0.447214 0.894427 -0.000000
vn 0.447214 0.894427 -0.000000
vn 0.447214 0.000000 0.894427
vn 0.447214 0.000000 0.894427
vn 0.447214 0.000000 0.894427
vn 0.000000 0.000000 1.000000
vn 0.000000 0.000000 1.000000
vn 0.000000 0.000000 1.000000
vn 0.000000 0.000000 1.000000
vn 0.000000 -1.000000 -0.000000
vn 0.000000 -1.000000 -0.000000
vn 0.000000 -1.000000 -0.000000
vn 0.000000 -1.000000 -0.000000
vn 0.000000 -1.000000 -0.000000
vn 0.000000 -1.000000 -0.000000
vn 1.000000 0.000000 0.000000
vn 1.000000 0.000000 0.000000
vn 1.000000 0.000000 0.000000
vn 1.000000 0.000000 0.000000
vn 1.000000 0.000000 0.000000
vn 1.000000 0.000000 0.000000
vn 1.000000 0.000000 0.000000
vn -0.000000 1.000000 0.000000
vn -0.000000 1.000000 0.000000
vn -0.000000 1.000000 0.000000
vn -0.000000 0.000000 -1.000000
vn -0.000000 0.000000 -1.000000
vn -0.000000 0.000000 -1.000000
vn -0.000000 0.000000 -1.000000
vn -0.000000 0.000000 -1.000000
vn -0.000000 0.000000 -1.000000
vn -0.000000 0.000000 -1.000000
vn -0.000000 0.000000 -1.000000
vn 0.894427 0.000000 0.447214
vn 0.894427 0.000000 0.447214
vn 0.894427 0.000000 0.447214
vn -0.000000 0.894427 0.447214
vn -0.000000 0.894427 0.447214
vn -0.000000 0.894427 0.447214
vn -0.894427 -0.000000 0.447214
vn -0.894427 -0.000000 0.447214
vn -0.894427 -0.000000 0.447214
vn 0.000000 -0.894427 0.447214
vn 0.000000 -0.894427 0.447214
vn 0.000000 -0.894427 0.447214
vn -0.000000 -0.000000 -1.000000
vn -0.000000 -0.000000 -1.000000
vn -0.000000 -0.000000 -1.000000
vn -0.000000 -0.000000 -1.000000
vn -0.000000 -0.000000 -1.000000
vn -0.000000 -0.000000 -1.000000
vn 0.000000 -1.000000 -0.000000
vn 0.000000 -1.000000 -0.000000
vn 0.000000 -1.000000 -0.000000
vn 0.000000 -1.000000 -0.000000
vn 0.000000 -1.000000 -0.000000
vn 0.000000 -1.000000 -0.000000
vn 0.000000 -1.000000 -0.000000
vn 0.000000 -1.000000 -0.000000
vn 0.894427 0.447214 0.000000
vn 0.894427 0.447214 0.000000
vn 0.894427 0.447214 0.000000
vn -0.000000 0.447214 -0.894427
vn -0.000000 0.447214 -0.894427
vn -0.000000 0.447214 -0.894427
vn -0.894427 0.447214 0.000000
vn -0.894427 0.447214 0.000000
vn -0.894427 0.447214 0.000000
vn -0.000000 0.447214 0.894427
vn -0.000000 0.447214 0.894427
vn -0.000000 0.447214 0.894427
vn 0.000000 0.000000 1.000000
vn 0.000000 0.000000 1.000000
vn 0.000000 0.000000 1.000000
vn -1.000000 -0.000000 0.000000
vn -1.000000 -0.000000 0.000000
vn -1.000000 -0.000000 0.000000
vn -1.000000 -0.000000 0.000000
vn -1.000000 -0.000000 0.000000
vn -1.000000 -0.000000 0.000000
usemtl Steel_-_Satin
f 1/1/1 2/2/2 4/3/3
f 4/3/3 2/2/2 3/4/4
f 6/5/5 10/6/6 5/7/7
f 5/7/7 10/6/6 4/8/8
f 5/7/7 4/8/8 8/9/9
f 8/9/9 4/8/8 3/10/10
f 8/9/9 3/10/10 7/11/11
f 7/11/11 3/10/10 6/5/5
f 6/5/5 3/10/10 9/12/12
f 6/5/5 9/12/12 10/6/6
f 6/13/13 5/14/14 11/15/15
f 5/16/16 8/17/17 11/18/18
f 8/19/19 7/20/20 11/21/21
f 7/22/22 6/23/23 11/24/24
f 2/25/25 12/26/26 3/27/27
f 3/27/27 12/26/26 9/28/28
f 15/29/29 13/30/30 12/31/31
f 12/31/31 13/30/30 10/32/32
f 12/31/31 10/32/32 9/33/33
f 12/31/31 14/34/34 15/29/29
f 2/35/35 1/36/36 17/37/37
f 17/37/37 1/36/36 16/38/38
f 2/35/35 18/39/39 12/40/40
f 12/40/40 18/39/39 14/41/41
f 2/42/2 19/43/42 18/44/43
f 18/44/43 19/43/42 20/45/44
f 22/46/45 18/47/46 21/48/47
f 21/48/47 18/47/46 20/49/48
f 21/48/47 20/49/48 24/50/49
f 24/50/49 20/49/48 15/51/50
f 24/50/49 15/51/50 23/52/51
f 23/52/51 15/51/50 22/46/45
f 22/46/45 15/51/50 14/53/52
f 22/46/45 14/53/52 18/47/46
f 22/54/53 21/55/54 25/56/55
f 21/57/56 24/58/57 25/59/58
f 24/60/59 23/61/60 25/62/61
f 23/63/62 22/64/63 25/65/64
f 4/66/65 10/67/66 1/68/67
f 1/68/67 10/67/66 13/69/68
f 1/68/67 13/69/68 26/70/69
f 26/70/69 16/71/70 1/68/67
f 28/72/71 16/73/72 27/74/73
f 27/74/73 16/73/72 26/75/74
f 27/74/73 26/75/74 30/76/75
f 30/76/75 26/75/74 31/77/76
f 30/76/75 31/77/76 29/78/77
f 29/78/77 31/77/76 28/72/71
f 28/72/71 31/77/76 17/79/78
f 28/72/71 17/79/78 16/73/72
f 28/80/79 27/81/80 32/82/81
f 27/83/82 30/84/83 32/85/84
f 30/86/85 29/87/86 32/88/87
f 29/89/88 28/90/89 32/91/90
f 19/92/91 2/93/25 31/94/92
f 31/94/92 2/93/25 17/95/93
f 31/96/94 26/97/95 19/98/96
f 19/98/96 26/97/95 13/99/97
f 19/98/96 13/99/97 15/100/98
f 15/100/98 20/101/99 19/98/96
# 32 vertices
# 101 texture params
# 99 normals
# 60 facets

# 1 groups
