# WaveFront *.obj file (generated by Autodesk ATF)

mtllib HIGH.mtl

g HIGH

v 2.500000 4.000000 -1.000000
v 2.500000 0.000000 -1.000000
v -2.500000 0.000000 -1.000000
v -2.500000 4.000000 -1.000000
v 2.500000 0.000000 1.000000
v -2.500000 0.000000 1.000000
v -2.500000 4.000000 1.000000
v 2.500000 4.000000 1.000000
vt -2.500000 -2.000000 0.000000
vt 2.500000 -2.000000 0.000000
vt -2.500000 2.000000 0.000000
vt 2.500000 2.000000 0.000000
vt 5.000000 1.000000 0.000000
vt 0.000000 1.000000 0.000000
vt 5.000000 -1.000000 0.000000
vt 0.000000 -1.000000 0.000000
vt 4.000000 1.000000 0.000000
vt -0.000000 1.000000 0.000000
vt 4.000000 -1.000000 0.000000
vt 0.000000 -1.000000 0.000000
vt 5.000000 1.000000 0.000000
vt -0.000000 1.000000 0.000000
vt 5.000000 -1.000000 0.000000
vt 0.000000 -1.000000 0.000000
vt 4.000000 1.000000 0.000000
vt 0.000000 1.000000 0.000000
vt 4.000000 -1.000000 0.000000
vt 0.000000 -1.000000 0.000000
vt 2.500000 2.000000 0.000000
vt -2.500000 2.000000 0.000000
vt 2.500000 -2.000000 0.000000
vt -2.500000 -2.000000 0.000000
vn 0.000000 0.000000 -1.000000
vn 0.000000 0.000000 -1.000000
vn 0.000000 0.000000 -1.000000
vn 0.000000 0.000000 -1.000000
vn 0.000000 -1.000000 0.000000
vn 0.000000 -1.000000 0.000000
vn 0.000000 -1.000000 0.000000
vn 0.000000 -1.000000 0.000000
vn -1.000000 0.000000 0.000000
vn -1.000000 0.000000 0.000000
vn -1.000000 0.000000 0.000000
vn -1.000000 0.000000 0.000000
vn 0.000000 1.000000 0.000000
vn 0.000000 1.000000 0.000000
vn 0.000000 1.000000 0.000000
vn 0.000000 1.000000 0.000000
vn 1.000000 0.000000 -0.000000
vn 1.000000 0.000000 -0.000000
vn 1.000000 0.000000 -0.000000
vn 1.000000 0.000000 -0.000000
vn 0.000000 0.000000 1.000000
vn 0.000000 0.000000 1.000000
vn 0.000000 0.000000 1.000000
vn 0.000000 0.000000 1.000000
usemtl Steel_-_Satin
f 2/1/1 3/2/2 1/3/3
f 1/3/3 3/2/2 4/4/4
f 5/5/5 6/6/6 2/7/7
f 2/7/7 6/6/6 3/8/8
f 6/9/9 7/10/10 3/11/11
f 3/11/11 7/10/10 4/12/12
f 7/13/13 8/14/14 4/15/15
f 4/15/15 8/14/14 1/16/16
f 8/17/17 5/18/18 1/19/19
f 1/19/19 5/18/18 2/20/20
f 8/21/21 7/22/22 5/23/23
f 5/23/23 7/22/22 6/24/24
# 8 vertices
# 24 texture params
# 24 normals
# 12 facets

# 1 groups
