# WaveFront *.obj file (generated by Autodesk ATF)

mtllib CLOCK_frame.mtl

g CLOCK_frame

v 1.900000 2.100000 -0.900000
v 1.900000 1.900000 -0.900000
v 1.900000 1.900000 -0.700000
v 1.900000 2.100000 -0.700000
v 2.100000 1.900000 -0.900000
v 2.100000 1.900000 -0.700000
v -1.900000 2.100000 -0.900000
v -1.900000 1.900000 -0.900000
v 1.900000 -1.900000 -0.900000
v 2.100000 -1.900000 -0.900000
v 2.100000 -1.900000 -0.700000
v 1.900000 -1.900000 -0.700000
v 2.100000 2.100000 -1.100000
v 2.100000 2.100000 -0.500000
v 2.100000 -2.100000 -0.500000
v 2.100000 -2.100000 -1.100000
v 1.900000 -2.100000 -0.900000
v 1.900000 -2.100000 -0.700000
v -1.900000 -1.900000 -0.900000
v -1.900000 -2.100000 -0.900000
v -1.900000 -2.100000 -0.700000
v -1.900000 -1.900000 -0.700000
v -2.100000 -2.100000 -0.500000
v -2.100000 -2.100000 -1.100000
v -2.100000 -1.900000 -0.900000
v -2.100000 -1.900000 -0.700000
v -2.100000 1.900000 -0.900000
v -2.100000 1.900000 -0.700000
v -1.900000 1.900000 -0.700000
v -2.100000 2.100000 -0.500000
v -2.100000 2.100000 -1.100000
v -1.900000 2.100000 -0.700000
v -1.900000 1.900000 -1.100000
v -1.900000 -1.900000 -1.100000
v 1.900000 -1.900000 -1.100000
v 1.900000 1.900000 -1.100000
v 1.900000 1.900000 -0.500000
v 1.900000 -1.900000 -0.500000
v -1.900000 -1.900000 -0.500000
v -1.900000 1.900000 -0.500000
vt -0.200000 0.100000 0.000000
vt -0.000000 0.100000 0.000000
vt -0.200000 0.300000 0.000000
vt -0.000000 0.300000 0.000000
vt -0.200000 0.100000 0.000000
vt -0.000000 0.100000 0.000000
vt -0.200000 0.300000 0.000000
vt -0.000000 0.300000 0.000000
vt 0.200000 1.900000 0.000000
vt -0.000000 1.900000 0.000000
vt 0.200000 -1.900000 0.000000
vt 0.000000 -1.900000 0.000000
vt 4.000000 1.900000 0.000000
vt 0.200000 2.100000 0.000000
vt 4.000000 2.100000 0.000000
vt 0.200000 -2.100000 0.000000
vt 4.000000 -2.100000 0.000000
vt 0.200000 -1.900000 0.000000
vt 4.000000 -1.900000 0.000000
vt 0.200000 3.900000 0.000000
vt 0.000000 -0.100000 0.000000
vt 0.200000 0.100000 0.000000
vt 0.600000 -0.100000 0.000000
vt 0.400000 0.100000 0.000000
vt 0.400000 3.900000 0.000000
vt 0.600000 4.100000 0.000000
vt 0.000000 4.100000 0.000000
vt -0.000000 0.100000 0.000000
vt 0.200000 0.100000 0.000000
vt -0.000000 0.300000 0.000000
vt 0.200000 0.300000 0.000000
vt -0.000000 0.100000 0.000000
vt 0.200000 0.100000 0.000000
vt -0.000000 0.300000 0.000000
vt 0.200000 0.300000 0.000000
vt 4.200000 1.900000 0.000000
vt 4.000000 1.900000 0.000000
vt 4.200000 -1.900000 0.000000
vt 4.000000 -1.900000 0.000000
vt 4.000000 -1.900000 0.000000
vt 4.200000 -1.900000 0.000000
vt 4.000000 1.900000 0.000000
vt 4.200000 1.900000 0.000000
vt 0.200000 3.900000 0.000000
vt 0.000000 -0.100000 0.000000
vt 0.200000 0.100000 0.000000
vt 0.600000 -0.100000 0.000000
vt 0.400000 0.100000 0.000000
vt 0.400000 3.900000 0.000000
vt 0.600000 4.100000 0.000000
vt 0.000000 4.100000 0.000000
vt -0.200000 0.100000 0.000000
vt -0.000000 0.100000 0.000000
vt -0.200000 0.300000 0.000000
vt -0.000000 0.300000 0.000000
vt -0.200000 0.100000 0.000000
vt -0.000000 0.100000 0.000000
vt -0.200000 0.300000 0.000000
vt -0.000000 0.300000 0.000000
vt 4.000000 -1.900000 0.000000
vt 0.200000 -1.900000 0.000000
vt 4.000000 -2.100000 0.000000
vt 0.200000 -2.100000 0.000000
vt 4.000000 2.100000 0.000000
vt 0.200000 2.100000 0.000000
vt 4.000000 1.900000 0.000000
vt 0.200000 1.900000 0.000000
vt 0.400000 0.100000 0.000000
vt 0.600000 -0.100000 0.000000
vt 0.400000 3.900000 0.000000
vt 0.600000 4.100000 0.000000
vt 0.000000 4.100000 0.000000
vt 0.200000 0.100000 0.000000
vt 0.000000 -0.100000 0.000000
vt 0.200000 3.900000 0.000000
vt 0.200000 0.300000 0.000000
vt 0.000000 0.300000 0.000000
vt 0.200000 0.100000 0.000000
vt 0.000000 0.100000 0.000000
vt 0.200000 0.300000 0.000000
vt 0.000000 0.300000 0.000000
vt 0.200000 0.100000 0.000000
vt 0.000000 0.100000 0.000000
vt 0.200000 3.900000 0.000000
vt 0.000000 3.900000 0.000000
vt 0.200000 0.100000 0.000000
vt 0.000000 0.100000 0.000000
vt 0.200000 3.900000 0.000000
vt 0.000000 3.900000 0.000000
vt 0.200000 0.100000 0.000000
vt 0.000000 0.100000 0.000000
vt 0.200000 3.900000 0.000000
vt -0.000000 3.900000 0.000000
vt 0.200000 0.100000 0.000000
vt -0.000000 0.100000 0.000000
vt 0.000000 -1.900000 0.000000
vt 0.200000 -2.100000 0.000000
vt 0.000000 1.900000 0.000000
vt 0.200000 2.100000 0.000000
vt -4.000000 2.100000 0.000000
vt -3.800000 -1.900000 0.000000
vt -4.000000 -2.100000 0.000000
vt -3.800000 1.900000 0.000000
vt 0.200000 1.900000 0.000000
vt -0.000000 1.900000 0.000000
vt 0.200000 -1.900000 0.000000
vt 0.000000 -1.900000 0.000000
vt 0.600000 -2.100000 0.000000
vt 0.200000 -1.900000 0.000000
vt -0.000000 -2.100000 0.000000
vt 0.200000 1.900000 0.000000
vt 0.000000 2.100000 0.000000
vt 0.400000 1.900000 0.000000
vt 0.600000 2.100000 0.000000
vt 0.400000 -1.900000 0.000000
vt 0.200000 3.900000 0.000000
vt 0.000000 3.900000 0.000000
vt 0.200000 0.100000 0.000000
vt 0.000000 0.100000 0.000000
vt 0.200000 3.900000 0.000000
vt 0.000000 3.900000 0.000000
vt 0.200000 0.100000 0.000000
vt 0.000000 0.100000 0.000000
vt 0.200000 3.900000 0.000000
vt 0.000000 3.900000 0.000000
vt 0.200000 0.100000 0.000000
vt 0.000000 0.100000 0.000000
vt -0.000000 -1.900000 0.000000
vt 0.200000 -1.900000 0.000000
vt 0.000000 1.900000 0.000000
vt 0.200000 1.900000 0.000000
vt 0.000000 -1.900000 0.000000
vt 0.200000 -2.100000 0.000000
vt 0.000000 1.900000 0.000000
vt 0.200000 2.100000 0.000000
vt -4.000000 2.100000 0.000000
vt -3.800000 -1.900000 0.000000
vt -4.000000 -2.100000 0.000000
vt -3.800000 1.900000 0.000000
vt 0.200000 1.900000 0.000000
vt 0.000000 1.900000 0.000000
vt 0.200000 -1.900000 0.000000
vt 0.000000 -1.900000 0.000000
vn -1.000000 0.000000 0.000000
vn -1.000000 0.000000 0.000000
vn -1.000000 0.000000 0.000000
vn -1.000000 0.000000 0.000000
vn 0.000000 -1.000000 0.000000
vn 0.000000 -1.000000 0.000000
vn 0.000000 -1.000000 0.000000
vn 0.000000 -1.000000 0.000000
vn 0.000000 0.000000 1.000000
vn 0.000000 0.000000 1.000000
vn 0.000000 0.000000 1.000000
vn 0.000000 0.000000 1.000000
vn 0.000000 0.000000 1.000000
vn 0.000000 0.000000 1.000000
vn 0.000000 0.000000 1.000000
vn 0.000000 0.000000 -1.000000
vn 0.000000 0.000000 -1.000000
vn 0.000000 0.000000 -1.000000
vn 0.000000 0.000000 -1.000000
vn 1.000000 0.000000 0.000000
vn 1.000000 0.000000 0.000000
vn 1.000000 0.000000 0.000000
vn 1.000000 0.000000 0.000000
vn 1.000000 0.000000 0.000000
vn 1.000000 0.000000 0.000000
vn 1.000000 0.000000 0.000000
vn 1.000000 0.000000 0.000000
vn 0.000000 1.000000 0.000000
vn 0.000000 1.000000 0.000000
vn 0.000000 1.000000 0.000000
vn 0.000000 1.000000 0.000000
vn -1.000000 0.000000 0.000000
vn -1.000000 0.000000 0.000000
vn -1.000000 0.000000 0.000000
vn -1.000000 0.000000 0.000000
vn 0.000000 0.000000 1.000000
vn 0.000000 0.000000 1.000000
vn 0.000000 0.000000 1.000000
vn 0.000000 0.000000 -1.000000
vn 0.000000 0.000000 -1.000000
vn 0.000000 0.000000 -1.000000
vn 0.000000 -1.000000 0.000000
vn 0.000000 -1.000000 0.000000
vn 0.000000 -1.000000 0.000000
vn 0.000000 -1.000000 0.000000
vn 0.000000 -1.000000 0.000000
vn 0.000000 -1.000000 0.000000
vn 0.000000 -1.000000 0.000000
vn 0.000000 -1.000000 0.000000
vn 1.000000 0.000000 0.000000
vn 1.000000 0.000000 0.000000
vn 1.000000 0.000000 0.000000
vn 1.000000 0.000000 0.000000
vn 0.000000 1.000000 0.000000
vn 0.000000 1.000000 0.000000
vn 0.000000 1.000000 0.000000
vn 0.000000 1.000000 0.000000
vn 0.000000 0.000000 1.000000
vn 0.000000 0.000000 1.000000
vn 0.000000 0.000000 -1.000000
vn 0.000000 0.000000 -1.000000
vn 0.000000 0.000000 -1.000000
vn -1.000000 0.000000 0.000000
vn -1.000000 0.000000 0.000000
vn -1.000000 0.000000 0.000000
vn -1.000000 0.000000 0.000000
vn -1.000000 0.000000 0.000000
vn -1.000000 0.000000 0.000000
vn -1.000000 0.000000 0.000000
vn -1.000000 0.000000 0.000000
vn 1.000000 0.000000 0.000000
vn 1.000000 0.000000 0.000000
vn 1.000000 0.000000 0.000000
vn 1.000000 0.000000 0.000000
vn 0.000000 -1.000000 0.000000
vn 0.000000 -1.000000 0.000000
vn 0.000000 -1.000000 0.000000
vn 0.000000 -1.000000 0.000000
vn 1.000000 0.000000 0.000000
vn 1.000000 0.000000 0.000000
vn 0.000000 1.000000 0.000000
vn 0.000000 1.000000 0.000000
vn -1.000000 0.000000 0.000000
vn -1.000000 0.000000 0.000000
vn 0.000000 0.000000 -1.000000
vn 0.000000 0.000000 -1.000000
vn 0.000000 0.000000 -1.000000
vn 0.000000 0.000000 -1.000000
vn 0.000000 0.000000 -1.000000
vn 0.000000 0.000000 -1.000000
vn 0.000000 0.000000 -1.000000
vn 0.000000 0.000000 -1.000000
vn 0.000000 -1.000000 0.000000
vn 0.000000 -1.000000 0.000000
vn 0.000000 1.000000 -0.000000
vn 0.000000 1.000000 -0.000000
vn 0.000000 1.000000 -0.000000
vn 0.000000 1.000000 -0.000000
vn 0.000000 1.000000 -0.000000
vn 0.000000 1.000000 -0.000000
vn 0.000000 1.000000 -0.000000
vn 0.000000 1.000000 -0.000000
vn -1.000000 0.000000 -0.000000
vn -1.000000 0.000000 -0.000000
vn 0.000000 1.000000 -0.000000
vn 0.000000 1.000000 -0.000000
vn 1.000000 -0.000000 -0.000000
vn 1.000000 -0.000000 -0.000000
vn 0.000000 0.000000 -1.000000
vn 0.000000 0.000000 -1.000000
vn 0.000000 0.000000 1.000000
vn 0.000000 0.000000 1.000000
vn 0.000000 0.000000 1.000000
vn 0.000000 0.000000 1.000000
vn 0.000000 0.000000 1.000000
vn 0.000000 0.000000 1.000000
vn 0.000000 0.000000 1.000000
vn 0.000000 0.000000 1.000000
vn -0.000000 -1.000000 -0.000000
vn -0.000000 -1.000000 -0.000000
usemtl Steel_-_Satin
f 1/1/1 2/2/2 4/3/3
f 4/3/3 2/2/2 3/4/4
f 2/5/5 5/6/6 3/7/7
f 3/7/7 5/6/6 6/8/8
f 2/9/9 1/10/10 8/11/11
f 8/11/11 1/10/10 7/12/12
f 2/9/9 9/13/13 5/14/14
f 5/14/14 9/13/13 10/15/15
f 6/16/16 11/17/17 3/18/18
f 3/18/18 11/17/17 12/19/19
f 10/20/20 13/21/21 5/22/22
f 5/22/22 13/21/21 14/23/23
f 5/22/22 14/23/23 6/24/24
f 6/24/24 14/23/23 11/25/25
f 11/25/25 14/23/23 15/26/26
f 11/25/25 15/26/26 16/27/27
f 13/21/21 10/20/20 16/27/27
f 16/27/27 10/20/20 11/25/25
f 10/28/28 9/29/29 11/30/30
f 11/30/30 9/29/29 12/31/31
f 9/32/32 17/33/33 12/34/34
f 12/34/34 17/33/33 18/35/35
f 17/36/36 9/37/13 20/38/37
f 20/38/37 9/37/13 19/39/38
f 12/40/19 18/41/39 22/42/40
f 22/42/40 18/41/39 21/43/41
f 20/44/42 16/45/43 17/46/44
f 17/46/44 16/45/43 15/47/45
f 17/46/44 15/47/45 18/48/46
f 18/48/46 15/47/45 21/49/47
f 21/49/47 15/47/45 23/50/48
f 21/49/47 23/50/48 24/51/49
f 16/45/43 20/44/42 24/51/49
f 24/51/49 20/44/42 21/49/47
f 20/52/50 19/53/51 21/54/52
f 21/54/52 19/53/51 22/55/53
f 19/56/54 25/57/55 22/58/56
f 22/58/56 25/57/55 26/59/57
f 19/60/38 8/61/11 25/62/58
f 25/62/58 8/61/11 27/63/59
f 26/64/60 28/65/61 22/66/40
f 22/66/40 28/65/61 29/67/62
f 27/68/63 31/69/64 25/70/65
f 25/70/65 31/69/64 24/71/66
f 25/70/65 24/71/66 23/72/67
f 27/68/63 28/73/68 31/69/64
f 31/69/64 28/73/68 30/74/69
f 30/74/69 28/73/68 26/75/70
f 30/74/69 26/75/70 23/72/67
f 23/72/67 26/75/70 25/70/65
f 32/76/71 29/77/72 7/78/73
f 7/78/73 29/77/72 8/79/74
f 29/80/75 28/81/76 8/82/77
f 8/82/77 28/81/76 27/83/78
f 33/84/79 8/85/74 34/86/80
f 34/86/80 8/85/74 19/87/51
f 34/88/81 19/89/54 35/90/82
f 35/90/82 19/89/54 9/91/29
f 35/92/83 9/93/32 36/94/84
f 36/94/84 9/93/32 2/95/2
f 33/96/85 31/97/86 36/98/87
f 36/98/87 31/97/86 13/99/88
f 36/98/87 13/99/88 16/100/89
f 33/96/85 34/101/90 31/97/86
f 31/97/86 34/101/90 24/102/91
f 24/102/91 34/101/90 35/103/92
f 24/102/91 35/103/92 16/100/89
f 16/100/89 35/103/92 36/98/87
f 36/104/93 2/105/5 33/106/94
f 33/106/94 2/105/5 8/107/77
f 13/108/95 4/109/96 14/110/97
f 14/110/97 4/109/96 32/111/98
f 14/110/97 32/111/98 30/112/99
f 30/112/99 32/111/98 7/113/100
f 30/112/99 7/113/100 31/114/101
f 31/114/101 7/113/100 13/108/95
f 13/108/95 7/113/100 1/115/102
f 13/108/95 1/115/102 4/109/96
f 37/116/103 3/117/4 38/118/104
f 38/118/104 3/117/4 12/119/34
f 38/120/105 12/121/31 39/122/106
f 39/122/106 12/121/31 22/123/56
f 39/124/107 22/125/53 40/126/108
f 40/126/108 22/125/53 29/127/72
f 4/128/109 3/129/18 32/130/110
f 32/130/110 3/129/18 29/131/62
f 37/132/111 14/133/112 40/134/113
f 40/134/113 14/133/112 30/135/114
f 40/134/113 30/135/114 23/136/115
f 37/132/111 38/137/116 14/133/112
f 14/133/112 38/137/116 15/138/117
f 15/138/117 38/137/116 39/139/118
f 15/138/117 39/139/118 23/136/115
f 23/136/115 39/139/118 40/134/113
f 40/140/119 29/141/75 37/142/120
f 37/142/120 29/141/75 3/143/7
# 40 vertices
# 143 texture params
# 120 normals
# 96 facets

# 1 groups
