# WaveFront *.obj file (generated by Autodesk ATF)

mtllib DTYPE_frame.mtl

g DTYPE_frame

v 1.900000 4.100000 -0.900000
v 1.900000 3.900000 -0.900000
v 1.900000 3.900000 0.400000
v 1.900000 4.100000 0.400000
v 2.100000 3.900000 -0.900000
v 2.100000 3.900000 0.400000
v 1.900000 -3.900000 -0.900000
v 2.100000 -3.900000 -0.900000
v 2.100000 -3.900000 0.400000
v 2.100000 4.100000 -1.100000
v 2.100000 4.100000 0.600000
v 2.100000 -4.100000 0.600000
v 2.100000 -4.100000 -1.100000
v 1.900000 -3.900000 0.400000
v -1.900000 3.900000 0.400000
v -1.900000 4.100000 0.400000
v -1.900000 3.900000 -0.900000
v -1.900000 4.100000 -0.900000
v -2.100000 3.900000 -0.900000
v -2.100000 3.900000 0.400000
v -2.100000 -3.900000 -0.900000
v -1.900000 -3.900000 -0.900000
v -1.900000 -3.900000 0.400000
v -2.100000 -3.900000 0.400000
v 1.900000 -4.100000 -0.900000
v 1.900000 -4.100000 0.400000
v -1.900000 -4.100000 -0.900000
v -1.900000 -4.100000 0.400000
v -2.100000 -4.100000 0.600000
v -2.100000 -4.100000 -1.100000
v -1.900000 -3.900000 -1.100000
v 1.900000 -3.900000 -1.100000
v 1.900000 3.900000 -1.100000
v -1.900000 3.900000 -1.100000
v -2.100000 4.100000 -1.100000
v -2.100000 4.100000 0.600000
v -1.900000 -3.900000 0.600000
v 1.900000 -3.900000 0.600000
v 1.900000 3.900000 0.600000
v -1.900000 3.900000 0.600000
vt 0.200000 1.400000 0.000000
vt 0.000000 1.400000 0.000000
vt 0.200000 0.100000 0.000000
vt 0.000000 0.100000 0.000000
vt 0.200000 1.400000 0.000000
vt 0.000000 1.400000 0.000000
vt 0.200000 0.100000 0.000000
vt 0.000000 0.100000 0.000000
vt 4.200000 3.900000 0.000000
vt 4.000000 3.900000 0.000000
vt 4.200000 -3.900000 0.000000
vt 4.000000 -3.900000 0.000000
vt 0.200000 7.900000 0.000000
vt 0.000000 -0.100000 0.000000
vt 0.200000 0.100000 0.000000
vt 1.700000 -0.100000 0.000000
vt 1.500000 0.100000 0.000000
vt 1.500000 7.900000 0.000000
vt 1.700000 8.100000 0.000000
vt 0.000000 8.100000 0.000000
vt -3.800000 3.900000 0.000000
vt -4.000000 3.900000 0.000000
vt -3.800000 -3.900000 0.000000
vt -4.000000 -3.900000 0.000000
vt -0.000000 3.900000 0.000000
vt -3.800000 4.100000 0.000000
vt 0.000000 4.100000 0.000000
vt 0.000000 0.100000 0.000000
vt 0.200000 0.100000 0.000000
vt 0.000000 1.400000 0.000000
vt 0.200000 1.400000 0.000000
vt 0.000000 0.100000 0.000000
vt 0.200000 0.100000 0.000000
vt 0.000000 1.400000 0.000000
vt 0.200000 1.400000 0.000000
vt 0.200000 3.900000 0.000000
vt 0.000000 3.900000 0.000000
vt 0.200000 -3.900000 0.000000
vt 0.000000 -3.900000 0.000000
vt 4.000000 4.100000 0.000000
vt 0.200000 4.100000 0.000000
vt 4.000000 3.900000 0.000000
vt 0.200000 3.900000 0.000000
vt 0.200000 3.900000 0.000000
vt -0.000000 3.900000 0.000000
vt 0.200000 -3.900000 0.000000
vt 0.000000 -3.900000 0.000000
vt -0.000000 0.100000 0.000000
vt 0.200000 0.100000 0.000000
vt -0.000000 1.400000 0.000000
vt 0.200000 1.400000 0.000000
vt -0.000000 0.100000 0.000000
vt 0.200000 0.100000 0.000000
vt 0.000000 1.400000 0.000000
vt 0.200000 1.400000 0.000000
vt 4.000000 -3.900000 0.000000
vt 0.200000 -3.900000 0.000000
vt 4.000000 -4.100000 0.000000
vt 0.200000 -4.100000 0.000000
vt -3.800000 -4.100000 0.000000
vt 0.000000 -4.100000 0.000000
vt -3.800000 -3.900000 0.000000
vt 0.000000 -3.900000 0.000000
vt -1.300000 3.900000 0.000000
vt -1.500000 -0.100000 0.000000
vt -1.300000 0.100000 0.000000
vt 0.200000 -0.100000 0.000000
vt 0.000000 0.100000 0.000000
vt 0.000000 3.900000 0.000000
vt 0.200000 4.100000 0.000000
vt -1.500000 4.100000 0.000000
vt 0.200000 3.900000 0.000000
vt -0.000000 3.900000 0.000000
vt 0.200000 0.100000 0.000000
vt -0.000000 0.100000 0.000000
vt 0.200000 7.900000 0.000000
vt 0.000000 7.900000 0.000000
vt 0.200000 0.100000 0.000000
vt 0.000000 0.100000 0.000000
vt 0.200000 3.900000 0.000000
vt 0.000000 3.900000 0.000000
vt 0.200000 0.100000 0.000000
vt 0.000000 0.100000 0.000000
vt 1.700000 -0.100000 0.000000
vt 1.700000 4.100000 0.000000
vt 1.500000 3.900000 0.000000
vt 0.000000 4.100000 0.000000
vt 0.200000 3.900000 0.000000
vt 0.000000 -0.100000 0.000000
vt 0.200000 0.100000 0.000000
vt 1.500000 0.100000 0.000000
vt 0.000000 -3.900000 0.000000
vt 0.200000 -4.100000 0.000000
vt -0.000000 3.900000 0.000000
vt 0.200000 4.100000 0.000000
vt -4.000000 4.100000 0.000000
vt -3.800000 -3.900000 0.000000
vt -4.000000 -4.100000 0.000000
vt -3.800000 3.900000 0.000000
vt 0.200000 3.900000 0.000000
vt -0.000000 3.900000 0.000000
vt 0.200000 -3.900000 0.000000
vt 0.000000 -3.900000 0.000000
vt 0.200000 -4.100000 0.000000
vt 0.200000 4.100000 0.000000
vt -0.000000 3.900000 0.000000
vt -1.500000 4.100000 0.000000
vt -1.300000 3.900000 0.000000
vt -1.500000 -4.100000 0.000000
vt -1.300000 -3.900000 0.000000
vt -0.000000 -3.900000 0.000000
vt -0.000000 0.100000 0.000000
vt 0.200000 0.100000 0.000000
vt -0.000000 1.400000 0.000000
vt 0.200000 1.400000 0.000000
vt 0.000000 0.100000 0.000000
vt 0.200000 0.100000 0.000000
vt 0.000000 1.400000 0.000000
vt 0.200000 1.400000 0.000000
vt 0.200000 3.900000 0.000000
vt -0.000000 3.900000 0.000000
vt 0.200000 0.100000 0.000000
vt 0.000000 0.100000 0.000000
vt 0.200000 7.900000 0.000000
vt 0.000000 7.900000 0.000000
vt 0.200000 0.100000 0.000000
vt 0.000000 0.100000 0.000000
vt 0.200000 3.900000 0.000000
vt 0.000000 3.900000 0.000000
vt 0.200000 0.100000 0.000000
vt 0.000000 0.100000 0.000000
vt 0.000000 -4.100000 0.000000
vt 0.200000 3.900000 0.000000
vt 0.000000 4.100000 0.000000
vt 4.000000 3.900000 0.000000
vt 4.200000 4.100000 0.000000
vt 4.200000 -4.100000 0.000000
vt 4.000000 -3.900000 0.000000
vt 0.200000 -3.900000 0.000000
vt 0.200000 3.900000 0.000000
vt -0.000000 3.900000 0.000000
vt 0.200000 -3.900000 0.000000
vt 0.000000 -3.900000 0.000000
vn -1.000000 -0.000000 -0.000000
vn -1.000000 -0.000000 -0.000000
vn -1.000000 -0.000000 -0.000000
vn -1.000000 -0.000000 -0.000000
vn 0.000000 -1.000000 0.000000
vn 0.000000 -1.000000 0.000000
vn 0.000000 -1.000000 0.000000
vn 0.000000 -1.000000 0.000000
vn 0.000000 -0.000000 1.000000
vn 0.000000 -0.000000 1.000000
vn 0.000000 -0.000000 1.000000
vn 0.000000 -0.000000 1.000000
vn 1.000000 0.000000 0.000000
vn 1.000000 0.000000 0.000000
vn 1.000000 0.000000 0.000000
vn 1.000000 0.000000 0.000000
vn 1.000000 0.000000 0.000000
vn 1.000000 0.000000 0.000000
vn 1.000000 0.000000 0.000000
vn 1.000000 0.000000 0.000000
vn 0.000000 0.000000 -1.000000
vn 0.000000 0.000000 -1.000000
vn 0.000000 0.000000 -1.000000
vn 0.000000 0.000000 -1.000000
vn 0.000000 0.000000 -1.000000
vn 0.000000 0.000000 -1.000000
vn 0.000000 0.000000 -1.000000
vn 1.000000 0.000000 -0.000000
vn 1.000000 0.000000 -0.000000
vn 1.000000 0.000000 -0.000000
vn 1.000000 0.000000 -0.000000
vn 0.000000 -1.000000 0.000000
vn 0.000000 -1.000000 0.000000
vn 0.000000 -1.000000 0.000000
vn 0.000000 -1.000000 0.000000
vn 0.000000 -0.000000 1.000000
vn 0.000000 -0.000000 1.000000
vn 0.000000 -0.000000 1.000000
vn 0.000000 -0.000000 1.000000
vn 0.000000 -0.000000 1.000000
vn 0.000000 -0.000000 1.000000
vn 0.000000 0.000000 -1.000000
vn 0.000000 0.000000 -1.000000
vn 0.000000 0.000000 -1.000000
vn -1.000000 0.000000 0.000000
vn -1.000000 0.000000 0.000000
vn -1.000000 0.000000 0.000000
vn -1.000000 0.000000 0.000000
vn 0.000000 1.000000 0.000000
vn 0.000000 1.000000 0.000000
vn 0.000000 1.000000 0.000000
vn 0.000000 1.000000 0.000000
vn 0.000000 -0.000000 1.000000
vn 0.000000 -0.000000 1.000000
vn 0.000000 0.000000 -1.000000
vn 0.000000 0.000000 -1.000000
vn 0.000000 -1.000000 0.000000
vn 0.000000 -1.000000 0.000000
vn 0.000000 -1.000000 0.000000
vn 0.000000 -1.000000 0.000000
vn 0.000000 -1.000000 0.000000
vn 0.000000 -1.000000 0.000000
vn 0.000000 -1.000000 0.000000
vn 0.000000 -1.000000 0.000000
vn 0.000000 1.000000 0.000000
vn 0.000000 1.000000 0.000000
vn 0.000000 1.000000 0.000000
vn -1.000000 0.000000 0.000000
vn -1.000000 0.000000 0.000000
vn 0.000000 -1.000000 0.000000
vn 0.000000 -1.000000 0.000000
vn 0.000000 1.000000 0.000000
vn 0.000000 1.000000 0.000000
vn 0.000000 1.000000 0.000000
vn 0.000000 1.000000 0.000000
vn 0.000000 1.000000 0.000000
vn 0.000000 1.000000 0.000000
vn 0.000000 1.000000 0.000000
vn 0.000000 1.000000 0.000000
vn 0.000000 0.000000 -1.000000
vn 0.000000 0.000000 -1.000000
vn 0.000000 0.000000 -1.000000
vn 0.000000 0.000000 -1.000000
vn 0.000000 0.000000 -1.000000
vn 0.000000 0.000000 -1.000000
vn 0.000000 0.000000 -1.000000
vn 0.000000 0.000000 -1.000000
vn 1.000000 0.000000 0.000000
vn 1.000000 0.000000 0.000000
vn 1.000000 0.000000 0.000000
vn -1.000000 0.000000 0.000000
vn -1.000000 0.000000 0.000000
vn -1.000000 0.000000 0.000000
vn -1.000000 0.000000 0.000000
vn -1.000000 0.000000 0.000000
vn -1.000000 0.000000 0.000000
vn -1.000000 0.000000 0.000000
vn -1.000000 0.000000 0.000000
vn 0.000000 1.000000 0.000000
vn 0.000000 1.000000 0.000000
vn 0.000000 1.000000 0.000000
vn 1.000000 0.000000 -0.000000
vn 1.000000 0.000000 -0.000000
vn 1.000000 0.000000 -0.000000
vn 0.000000 1.000000 0.000000
vn 0.000000 1.000000 0.000000
vn -1.000000 0.000000 0.000000
vn -1.000000 0.000000 0.000000
vn 0.000000 -1.000000 0.000000
vn 0.000000 -1.000000 0.000000
vn 0.000000 -0.000000 1.000000
vn 0.000000 -0.000000 1.000000
vn 0.000000 -0.000000 1.000000
vn 0.000000 -0.000000 1.000000
vn 0.000000 -0.000000 1.000000
vn 0.000000 -0.000000 1.000000
vn 0.000000 -0.000000 1.000000
vn 0.000000 -0.000000 1.000000
vn 1.000000 0.000000 0.000000
vn 1.000000 0.000000 0.000000
usemtl Steel_-_Satin
f 1/1/1 2/2/2 4/3/3
f 4/3/3 2/2/2 3/4/4
f 2/5/5 5/6/6 3/7/7
f 3/7/7 5/6/6 6/8/8
f 5/9/9 2/10/10 8/11/11
f 8/11/11 2/10/10 7/12/12
f 8/13/13 10/14/14 5/15/15
f 5/15/15 10/14/14 11/16/16
f 5/15/15 11/16/16 6/17/17
f 6/17/17 11/16/16 9/18/18
f 9/18/18 11/16/16 12/19/19
f 9/18/18 12/19/19 13/20/20
f 10/14/14 8/13/13 13/20/20
f 13/20/20 8/13/13 9/18/18
f 3/21/21 6/22/22 14/23/23
f 14/23/23 6/22/22 9/24/24
f 3/21/21 15/25/25 4/26/26
f 4/26/26 15/25/25 16/27/27
f 17/28/28 18/29/29 15/30/30
f 15/30/30 18/29/29 16/31/31
f 19/32/32 17/33/33 20/34/34
f 20/34/34 17/33/33 15/35/35
f 17/36/36 19/37/37 22/38/38
f 22/38/38 19/37/37 21/39/39
f 1/40/40 18/41/41 2/42/10
f 2/42/10 18/41/41 17/43/36
f 20/44/42 15/45/25 24/46/43
f 24/46/43 15/45/25 23/47/44
f 7/48/45 25/49/46 14/50/47
f 14/50/47 25/49/46 26/51/48
f 8/52/49 7/53/50 9/54/51
f 9/54/51 7/53/50 14/55/52
f 7/56/12 22/57/38 25/58/53
f 25/58/53 22/57/38 27/59/54
f 26/60/55 28/61/56 14/62/23
f 14/62/23 28/61/56 23/63/44
f 27/64/57 13/65/58 25/66/59
f 25/66/59 13/65/58 12/67/60
f 25/66/59 12/67/60 26/68/61
f 26/68/61 12/67/60 28/69/62
f 28/69/62 12/67/60 29/70/63
f 28/69/62 29/70/63 30/71/64
f 13/65/58 27/64/57 30/71/64
f 30/71/64 27/64/57 28/69/62
f 31/72/65 22/73/66 32/74/67
f 32/74/67 22/73/66 7/75/50
f 32/76/68 7/77/45 33/78/69
f 33/78/69 7/77/45 2/79/2
f 33/80/70 2/81/5 34/82/71
f 34/82/71 2/81/5 17/83/33
f 36/84/72 11/85/73 4/86/74
f 4/86/74 11/85/73 10/87/75
f 4/86/74 10/87/75 1/88/76
f 1/88/76 10/87/75 35/89/77
f 1/88/76 35/89/77 18/90/78
f 18/90/78 35/89/77 36/84/72
f 18/90/78 36/84/72 16/91/79
f 16/91/79 36/84/72 4/86/74
f 31/92/80 30/93/81 34/94/82
f 34/94/82 30/93/81 35/95/83
f 34/94/82 35/95/83 10/96/84
f 31/92/80 32/97/85 30/93/81
f 30/93/81 32/97/85 13/98/86
f 13/98/86 32/97/85 33/99/87
f 13/98/86 33/99/87 10/96/84
f 10/96/84 33/99/87 34/94/82
f 34/100/88 17/101/28 31/102/89
f 31/102/89 17/101/28 22/103/90
f 29/104/91 36/105/92 20/106/93
f 20/106/93 36/105/92 35/107/94
f 20/106/93 35/107/94 19/108/95
f 19/108/95 35/107/94 30/109/96
f 19/108/95 30/109/96 21/110/97
f 21/110/97 30/109/96 29/104/91
f 21/110/97 29/104/91 24/111/98
f 24/111/98 29/104/91 20/106/93
f 22/112/66 21/113/99 23/114/100
f 23/114/100 21/113/99 24/115/101
f 27/116/102 22/117/90 28/118/103
f 28/118/103 22/117/90 23/119/104
f 23/120/100 37/121/105 14/122/52
f 14/122/52 37/121/105 38/123/106
f 14/124/47 38/125/107 3/126/4
f 3/126/4 38/125/107 39/127/108
f 3/128/7 39/129/109 15/130/35
f 15/130/35 39/129/109 40/131/110
f 29/132/111 40/133/112 36/134/113
f 36/134/113 40/133/112 39/135/114
f 36/134/113 39/135/114 11/136/115
f 11/136/115 39/135/114 12/137/116
f 12/137/116 39/135/114 38/138/117
f 12/137/116 38/138/117 37/139/118
f 40/133/112 29/132/111 37/139/118
f 37/139/118 29/132/111 12/137/116
f 15/140/30 40/141/119 23/142/104
f 23/142/104 40/141/119 37/143/120
# 40 vertices
# 143 texture params
# 120 normals
# 96 facets

# 1 groups
