# WaveFront *.obj file (generated by Autodesk ATF)

mtllib RC.mtl

g RC

v 0.000000 1.500000 -1.000000
v 4.000000 0.000000 -1.000000
v 0.000000 -1.500000 -1.000000
v 4.000000 0.000000 1.000000
v 0.000000 -1.500000 1.000000
v 0.000000 1.500000 1.000000
vt 2.000000 1.500000 0.000000
vt -2.000000 0.000000 0.000000
vt 2.000000 -1.500000 0.000000
vt 4.272002 1.000000 0.000000
vt 0.000000 1.000000 0.000000
vt 4.272002 -1.000000 0.000000
vt 0.000000 -1.000000 0.000000
vt 3.000000 1.000000 0.000000
vt 0.000000 1.000000 0.000000
vt 3.000000 -1.000000 0.000000
vt 0.000000 -1.000000 0.000000
vt 4.272002 1.000000 0.000000
vt 0.000000 1.000000 0.000000
vt 4.272002 -1.000000 0.000000
vt 0.000000 -1.000000 0.000000
vt 2.000000 0.000000 0.000000
vt -2.000000 1.500000 0.000000
vt -2.000000 -1.500000 0.000000
vn 0.000000 0.000000 -1.000000
vn 0.000000 0.000000 -1.000000
vn 0.000000 0.000000 -1.000000
vn 0.351123 -0.936329 0.000000
vn 0.351123 -0.936329 0.000000
vn 0.351123 -0.936329 0.000000
vn 0.351123 -0.936329 0.000000
vn -1.000000 0.000000 0.000000
vn -1.000000 0.000000 0.000000
vn -1.000000 0.000000 0.000000
vn -1.000000 0.000000 0.000000
vn 0.351123 0.936329 -0.000000
vn 0.351123 0.936329 -0.000000
vn 0.351123 0.936329 -0.000000
vn 0.351123 0.936329 -0.000000
vn 0.000000 0.000000 1.000000
vn 0.000000 0.000000 1.000000
vn 0.000000 0.000000 1.000000
usemtl Steel_-_Satin
f 1/1/1 2/2/2 3/3/3
f 4/4/4 5/5/5 2/6/6
f 2/6/6 5/5/5 3/7/7
f 5/8/8 6/9/9 3/10/10
f 3/10/10 6/9/9 1/11/11
f 6/12/12 4/13/13 1/14/14
f 1/14/14 4/13/13 2/15/15
f 4/16/16 6/17/17 5/18/18
# 6 vertices
# 18 texture params
# 18 normals
# 8 facets

# 1 groups
