# WaveFront *.obj file (generated by Autodesk ATF)

mtllib LOW.mtl

g LOW_2

v 0.500000 1.500000 -0.500000
v 0.500000 -1.500000 -0.500000
v -0.500000 -1.500000 -0.500000
v -0.500000 1.500000 -0.500000
v 0.500000 -1.500000 0.500000
v -0.500000 -1.500000 0.500000
v -0.500000 1.500000 0.500000
v 0.500000 1.500000 0.500000
vt -1.000000 -1.500000 0.000000
vt -0.000000 -1.500000 0.000000
vt -1.000000 1.500000 0.000000
vt -0.000000 1.500000 0.000000
vt -0.250000 -0.500000 0.000000
vt 0.750000 -0.500000 0.000000
vt -0.250000 0.500000 0.000000
vt 0.750000 0.500000 0.000000
vt 0.500000 1.500000 0.000000
vt -0.500000 1.500000 0.000000
vt 0.500000 -1.500000 0.000000
vt -0.500000 -1.500000 0.000000
vt 1.000000 1.500000 0.000000
vt 0.000000 1.500000 0.000000
vt 1.000000 -1.500000 0.000000
vt 0.000000 -1.500000 0.000000
vt 1.000000 1.500000 0.000000
vt 0.000000 1.500000 0.000000
vt 1.000000 -1.500000 0.000000
vt 0.000000 -1.500000 0.000000
vt 0.250000 0.500000 0.000000
vt -0.750000 0.500000 0.000000
vt 0.250000 -0.500000 0.000000
vt -0.750000 -0.500000 0.000000
vn 0.000000 0.000000 -1.000000
vn 0.000000 0.000000 -1.000000
vn 0.000000 0.000000 -1.000000
vn 0.000000 0.000000 -1.000000
vn 0.000000 -1.000000 0.000000
vn 0.000000 -1.000000 0.000000
vn 0.000000 -1.000000 0.000000
vn 0.000000 -1.000000 0.000000
vn -1.000000 0.000000 0.000000
vn -1.000000 0.000000 0.000000
vn -1.000000 0.000000 0.000000
vn -1.000000 0.000000 0.000000
vn 1.000000 -0.000000 0.000000
vn 1.000000 -0.000000 0.000000
vn 1.000000 -0.000000 0.000000
vn 1.000000 -0.000000 0.000000
vn 0.000000 0.000000 1.000000
vn 0.000000 0.000000 1.000000
vn 0.000000 0.000000 1.000000
vn 0.000000 0.000000 1.000000
vn 0.000000 1.000000 0.000000
vn 0.000000 1.000000 0.000000
vn 0.000000 1.000000 0.000000
vn 0.000000 1.000000 0.000000
usemtl Steel_-_Satin
f 2/1/1 3/2/2 1/3/3
f 1/3/3 3/2/2 4/4/4
f 6/5/5 3/6/6 5/7/7
f 5/7/7 3/6/6 2/8/8
f 7/9/9 4/10/10 6/11/11
f 6/11/11 4/10/10 3/12/12
f 1/13/13 8/14/14 2/15/15
f 2/15/15 8/14/14 5/16/16
f 8/17/17 7/18/18 5/19/19
f 5/19/19 7/18/18 6/20/20
f 8/21/21 1/22/22 7/23/23
f 7/23/23 1/22/22 4/24/24
# 8 vertices
# 24 texture params
# 24 normals
# 12 facets

# 1 groups
